<?xml version="1.0" encoding="utf-8"?>
<!-- Generator: Adobe Illustrator 17.1.0, SVG Export Plug-In . SVG Version: 6.00 Build 0)  -->
<!DOCTYPE svg PUBLIC "-//W3C//DTD SVG 1.1//EN" "http://www.w3.org/Graphics/SVG/1.1/DTD/svg11.dtd">
<svg version="1.1" id="Layer_1" xmlns="http://www.w3.org/2000/svg" xmlns:xlink="http://www.w3.org/1999/xlink" x="0px" y="0px"
	 viewBox="0 0 184 143.4" enable-background="new 0 0 184 143.4" xml:space="preserve">
<g>
	<g>
		<path d="M67.3,101.7h0.3v0.2h-4.1v-0.2h0.3c0.2,0,0.4-0.1,0.5-0.2c0.2-0.2,0.2-0.3,0.2-0.5l-1-8.2l-3.7,7.4
			c-0.4,0.8-0.6,1.5-0.7,2h-0.2L54,92.9l-0.9,8c0,0.2,0,0.4,0.2,0.5c0.2,0.2,0.3,0.2,0.5,0.2h0.3v0.2h-3.7v-0.2h0.3
			c0.5,0,0.8-0.2,1.1-0.5c0.1-0.2,0.2-0.4,0.2-0.6l1.5-10.8h0.2l5.2,10.1l5.1-10.1h0.2l1.6,10.9c0.1,0.3,0.2,0.6,0.5,0.8
			C66.6,101.6,66.9,101.7,67.3,101.7z"/>
		<path d="M80.8,101.7H81v0.2h-4.1v-0.2H77c0.3,0,0.4-0.1,0.6-0.3c0.1-0.2,0.2-0.3,0.2-0.5c0-0.2,0-0.3-0.1-0.4l-1.1-2.6h-5
			l-1.1,2.6c-0.1,0.2-0.1,0.3-0.1,0.5c0,0.2,0.1,0.3,0.2,0.5c0.1,0.2,0.3,0.3,0.6,0.3h0.2v0.2h-3.8v-0.2h0.2c0.3,0,0.6-0.1,0.8-0.3
			c0.3-0.2,0.5-0.5,0.7-0.9c2.9-6.2,4.4-9.4,4.5-9.7c0.2-0.6,0.3-0.9,0.4-1.1h0.2l4.9,10.8C79.7,101.3,80.2,101.7,80.8,101.7z
			 M71.9,97.2h4.5l-2.2-5.4L71.9,97.2z"/>
		<path d="M94.9,95.9c0,1.8-0.6,3.3-1.7,4.4c-1.1,1.1-2.7,1.6-4.7,1.6h-6.6v-0.2h0.3c0.3,0,0.6-0.1,0.8-0.3c0.2-0.2,0.3-0.5,0.3-0.8
			v-9.4c0-0.3-0.1-0.6-0.3-0.8c-0.2-0.2-0.5-0.3-0.8-0.3h-0.2V90h6.6c1.3,0,2.4,0.2,3.4,0.7c1,0.5,1.7,1.2,2.2,2.1
			C94.7,93.6,94.9,94.7,94.9,95.9z M84.6,90.6v10.7h3.9c1.5,0,2.7-0.5,3.6-1.4c0.9-1,1.3-2.3,1.3-3.9c0-1.7-0.4-3-1.3-3.9
			c-0.9-1-2.1-1.4-3.6-1.4H84.6z"/>
		<path d="M97,101.7c0.3,0,0.6-0.1,0.8-0.3c0.2-0.2,0.3-0.5,0.3-0.7v-9.4c0-0.3-0.1-0.5-0.3-0.7c-0.2-0.2-0.5-0.3-0.8-0.3h-0.3V90
			h5.8c0.5,0,1,0,1.4-0.1c0.4-0.1,0.7-0.1,0.8-0.2v2.3l-0.2,0v-0.3c0-0.3-0.1-0.5-0.3-0.7c-0.2-0.2-0.4-0.3-0.7-0.3h-4.1v5h3.4
			c0.3,0,0.5-0.1,0.6-0.2c0.1-0.2,0.2-0.4,0.2-0.6v-0.3h0.2v2.8h-0.2V97c0-0.4-0.1-0.6-0.4-0.8c-0.1,0-0.2-0.1-0.3-0.1h-3.5v5h3.1
			c0.6,0,1.1-0.1,1.5-0.3c0.4-0.2,0.7-0.5,1-0.8c0.2-0.3,0.4-0.7,0.7-1.1h0.2l-1.1,2.8h-8.1v-0.2H97z"/>
		<path d="M112.8,101.7c0.4,0,0.7-0.1,0.9-0.3c0.3-0.2,0.4-0.5,0.4-0.8v-9.4c0-0.3-0.1-0.5-0.4-0.8c-0.3-0.2-0.6-0.3-1-0.3h-0.3V90
			h4.5v0.2h-0.3c-0.4,0-0.7,0.1-0.9,0.3c-0.3,0.2-0.4,0.4-0.4,0.7v9.4c0,0.3,0.2,0.5,0.4,0.7c0.3,0.2,0.6,0.3,0.9,0.3h0.3l0,0.2
			h-4.5v-0.2H112.8z"/>
		<path d="M132.5,90.2c-0.3,0-0.5,0.1-0.8,0.3c-0.2,0.2-0.3,0.4-0.3,0.7v8.4c0,0.8,0,1.5,0.1,2.2l0,0.4h-0.2l-10.3-9.8v8.3
			c0,0.3,0.1,0.5,0.3,0.7c0.2,0.2,0.5,0.3,0.8,0.3h0.3v0.2h-3.7v-0.2h0.3c0.3,0,0.6-0.1,0.8-0.3c0.2-0.2,0.3-0.4,0.3-0.7v-8.5
			c0-0.8,0-1.5-0.1-2.2l0-0.3l0.2,0l10.3,9.7v-8.2c0-0.3-0.1-0.5-0.4-0.7c-0.2-0.2-0.5-0.3-0.8-0.3h-0.3V90h3.7v0.2H132.5z"/>
		<path d="M0.1,140.9C0,140.5,0,139.7,0,138.5c0-1.2,0.2-2.5,0.7-3.8h0.4c0,0.3,0,0.7,0,1c0,1.8,0.5,3.3,1.7,4.5
			c1.1,1.2,2.6,1.8,4.4,1.8c1.9,0,3.4-0.6,4.6-1.7c1.2-1.1,1.8-2.5,1.8-4.3c0-1.7-0.6-3.1-1.7-4.2L3.2,124c-1.6-1.5-2.4-3.3-2.4-5.4
			c0-2.1,0.7-3.9,2.1-5.4c1.4-1.5,3.3-2.3,5.7-2.3c1.1,0,2.4,0.1,3.8,0.4h1.7v5.5h-0.4c0-1.4-0.5-2.5-1.4-3.3
			c-1-0.8-2.2-1.2-3.7-1.2c-1.5,0-2.8,0.5-3.8,1.5c-1,1-1.5,2.3-1.5,3.8c0,1.5,0.6,2.8,1.8,3.9l8.8,8.1c1.5,1.4,2.2,3.2,2.2,5.6
			s-0.8,4.3-2.3,5.9c-1.5,1.5-3.5,2.3-6.1,2.3c-1.3,0-2.7-0.2-4.2-0.6C2.1,142.4,0.9,141.8,0.1,140.9z"/>
		<path d="M33,117.3v22.7c0,0.9,0.5,1.6,1.3,2.1c0.4,0.2,0.8,0.3,1.3,0.3h0.5v0.4h-9.2v-0.4h0.5c0.7,0,1.3-0.2,1.8-0.7
			c0.5-0.5,0.8-1,0.8-1.7v-22.6H22c-0.7,0-1.2,0.2-1.6,0.7c-0.4,0.4-0.6,1-0.6,1.6v0.7h-0.5v-5c0.6,0.2,1.4,0.4,2.5,0.5
			c1.1,0.1,1.9,0.2,2.4,0.2h14.5c2.1,0,3.8-0.2,5-0.7v5h-0.5v-0.7c0-0.6-0.2-1.2-0.6-1.6c-0.4-0.4-1-0.7-1.6-0.7H33z"/>
		<path d="M46.7,142.4c-0.4,0.4-0.9,0.6-1.4,0.6c-0.6,0-1-0.2-1.4-0.6c-0.4-0.4-0.6-0.9-0.6-1.4c0-0.6,0.2-1,0.6-1.4
			c0.4-0.4,0.9-0.6,1.4-0.6c0.6,0,1,0.2,1.4,0.6c0.4,0.4,0.6,0.9,0.6,1.4C47.3,141.5,47.1,142,46.7,142.4z"/>
		<path d="M63.7,142.3c0.8,0,1.4-0.3,2-0.8c0.6-0.5,0.8-1.2,0.9-2v-24.7c0-0.8-0.3-1.4-0.9-2c-0.6-0.6-1.2-0.8-2-0.8h-0.6v-0.4h9.8
			v0.4h-0.6c-1.1,0-1.9,0.5-2.5,1.4c-0.3,0.4-0.4,0.9-0.4,1.4v26.6h6.4c2.2,0,3.9-0.5,5-1.5c1.2-1,2.1-2.4,2.9-4.4h0.4l-2.6,7.2
			H63.1v-0.4H63.7z"/>
		<path d="M95.2,117.1c2.3-1.2,4.8-1.8,7.6-1.8c2.8,0,5.3,0.6,7.6,1.8c2.3,1.2,4.1,2.8,5.5,5c1.4,2.1,2,4.6,2,7.3
			c0,2.7-0.7,5.1-2,7.3c-1.4,2.1-3.2,3.8-5.5,5c-2.3,1.2-4.6,1.8-7,1.8c-2.4,0-4.5-0.3-6.4-1c-1.8-0.7-3.4-1.6-4.8-2.9
			c-1.4-1.2-2.4-2.7-3.2-4.5c-0.8-1.8-1.2-3.8-1.2-6.2c0-2.4,0.7-4.6,2-6.8C91.1,120,92.9,118.3,95.2,117.1z M94.4,138.5
			c2.2,2.4,5,3.5,8.4,3.5c3.3,0,6.1-1.2,8.4-3.5c2.3-2.4,3.4-5.4,3.4-9.1c0-3.7-1.1-6.8-3.4-9.1c-2.3-2.4-5.1-3.5-8.4-3.5
			c-3.3,0-6.1,1.2-8.4,3.5c-2.2,2.4-3.4,5.4-3.4,9.1C91,133.1,92.1,136.1,94.4,138.5z"/>
		<path d="M149.2,116.4h-0.7c-0.8,0-1.4,0.3-1.8,0.9c-0.2,0.3-0.3,0.6-0.3,0.9v15c0,3.1-1,5.5-3,7.3c-2,1.8-4.7,2.7-8.1,2.7
			c-3.5,0-6.2-0.9-8.2-2.7c-2-1.8-3-4.2-3-7.3v-15c0-0.5-0.2-1-0.6-1.4c-0.4-0.4-0.9-0.6-1.5-0.6h-0.7V116h8.5v0.4h-0.7
			c-0.6,0-1.1,0.2-1.5,0.6c-0.4,0.4-0.6,0.8-0.6,1.4v14.5c0,2.9,0.7,5.2,2.2,6.8c1.5,1.7,3.6,2.5,6.2,2.5c2.7,0,4.8-0.8,6.5-2.4
			c1.6-1.6,2.4-3.7,2.4-6.5v-15c0-0.6-0.2-1-0.6-1.4c-0.4-0.4-0.9-0.5-1.5-0.5h-0.7V116h7.7V116.4z"/>
		<path d="M153.9,142.3c0.8,0,1.5-0.2,2.1-0.7c0.6-0.5,0.9-1,0.9-1.7v-21.1c0-0.7-0.3-1.2-0.9-1.7c-0.6-0.5-1.3-0.7-2.1-0.7h-0.6
			V116h10.1v0.4h-0.6c-0.8,0-1.5,0.2-2.1,0.7c-0.6,0.4-0.9,1-1,1.7v21.2c0,0.7,0.3,1.2,0.9,1.7c0.6,0.5,1.3,0.7,2.1,0.7h0.6l0,0.4
			h-10.1v-0.4H153.9z"/>
		<path d="M168.4,141.3c-0.1-0.4-0.1-1.1-0.1-2.2s0.2-2.2,0.6-3.3h0.5c0,0.3,0,0.5,0,0.8c0,1.6,0.5,2.9,1.6,3.9
			c1.1,1,2.5,1.5,4.4,1.5c2,0,3.5-0.5,4.6-1.4c1.1-0.9,1.7-2.1,1.7-3.5c0-1.4-0.5-2.6-1.6-3.6l-8.9-6.9c-1.4-1.2-2.1-2.9-2.1-4.9
			c0-1.2,0.3-2.2,1-3.2c0.6-1,1.5-1.8,2.7-2.3c1.1-0.6,2.5-0.9,4-0.9c1.5,0,2.9,0.1,4.1,0.4h1.5l0.1,4.9h-0.5c0-1.2-0.4-2.2-1.3-2.9
			c-0.9-0.7-2.1-1-3.7-1c-1.6,0-2.9,0.4-4,1.2c-1,0.8-1.6,1.9-1.6,3.2c0,1.3,0.6,2.4,1.7,3.4l9,7c1.4,1.1,2.1,2.7,2.1,4.7
			c0,2-0.8,3.7-2.3,5.1c-1.5,1.4-3.4,2.1-5.6,2.1c-1.5,0-2.9-0.2-4.4-0.5C170.3,142.5,169.2,142,168.4,141.3z"/>
	</g>
	<g>
		<path d="M92.7,5.9c32.9,0,45.8,72,50.8,95h11.6c0,0-18.7-100.9-62.4-100.9C48.2,0,30.3,100.9,30.3,100.9h11.6
			C46.7,77.9,59.2,5.9,92.7,5.9z"/>
	</g>
</g>
</svg>
