<?xml version="1.0" encoding="UTF-8" standalone="no"?>
<!-- Created with Inkscape (http://www.inkscape.org/) -->

<svg
   xmlns:dc="http://purl.org/dc/elements/1.1/"
   xmlns:cc="http://creativecommons.org/ns#"
   xmlns:rdf="http://www.w3.org/1999/02/22-rdf-syntax-ns#"
   xmlns:svg="http://www.w3.org/2000/svg"
   xmlns="http://www.w3.org/2000/svg"
   xmlns:sodipodi="http://sodipodi.sourceforge.net/DTD/sodipodi-0.dtd"
   xmlns:inkscape="http://www.inkscape.org/namespaces/inkscape"
   width="145.55069mm"
   height="147.26842mm"
   viewBox="0 0 515.73079 521.81722"
   id="svg6805"
   version="1.1"
   inkscape:version="0.91 r13725"
   sodipodi:docname="confrontation-ii.svg">
  <defs
     id="defs6807" />
  <sodipodi:namedview
     id="base"
     pagecolor="#ffffff"
     bordercolor="#666666"
     borderopacity="1.0"
     inkscape:pageopacity="0.0"
     inkscape:pageshadow="2"
     inkscape:zoom="0.35"
     inkscape:cx="-585.706"
     inkscape:cy="260.90857"
     inkscape:document-units="px"
     inkscape:current-layer="layer1"
     showgrid="false"
     inkscape:window-width="1920"
     inkscape:window-height="1058"
     inkscape:window-x="1432"
     inkscape:window-y="-8"
     inkscape:window-maximized="1"
     fit-margin-top="0"
     fit-margin-left="0"
     fit-margin-right="0"
     fit-margin-bottom="0" />
  <metadata
     id="metadata6810">
    <rdf:RDF>
      <cc:Work
         rdf:about="">
        <dc:format>image/svg+xml</dc:format>
        <dc:type
           rdf:resource="http://purl.org/dc/dcmitype/StillImage" />
        <dc:title></dc:title>
      </cc:Work>
    </rdf:RDF>
  </metadata>
  <g
     inkscape:label="Layer 1"
     inkscape:groupmode="layer"
     id="layer1"
     transform="translate(-87.848858,-271.45355)">
    <g
       id="g5314"
       inkscape:export-xdpi="90"
       inkscape:export-ydpi="90"
       transform="translate(2220.0793,-435.09141)">
      <circle
         style="fill:#000000;stroke:#ffffff;stroke-width:0"
         cx="-1874.2856"
         cy="972.36218"
         r="256"
         id="circle4951" />
      <g
         transform="translate(-620,0)"
         id="g4953">
        <path
           inkscape:connector-curvature="0"
           id="path4955"
           d="m -1433.5195,727.14926 -7.3081,27.27344 25.3289,37.81451 c 13.296,-0.0945 26.4127,0.59628 38.848,2.40525 l -29.5953,-60.18531 z"
           style="fill:#ffffff" />
        <path
           sodipodi:nodetypes="ccccc"
           inkscape:connector-curvature="0"
           id="path4957"
           d="m -1367.6999,725.49417 17.8964,77.5004 c 16.8088,8.7319 31.8085,21.05383 44.5354,37.15388 l -22.1397,-121.33906 z"
           style="fill:#ffffff" />
        <path
           sodipodi:nodetypes="cccc"
           inkscape:connector-curvature="0"
           id="path4959"
           d="m -1281.0288,706.54496 26.6619,199.27194 c 0,0 20.9465,-172.9384 26.6639,-199.27194 z"
           style="fill:#ffffff" />
        <path
           sodipodi:nodetypes="ccccc"
           inkscape:connector-curvature="0"
           id="path4961"
           d="m -1181.3223,718.80926 -22.1404,121.33932 c 12.7276,-16.10031 27.7273,-28.42222 44.5361,-37.1541 l 17.8964,-77.50041 z"
           style="fill:#ffffff" />
        <path
           inkscape:connector-curvature="0"
           id="path4963"
           d="m -1102.4841,734.45715 -29.5953,60.18531 c 12.4359,-1.80923 25.552,-2.49974 38.848,-2.40525 l 25.3289,-37.81451 -7.3081,-27.27344 z"
           style="fill:#ffffff" />
      </g>
      <g
         id="g4979"
         transform="translate(-620.37544,0)">
        <g
           transform="matrix(-0.94909309,0,0,0.94909309,-2438.2669,48.03966)"
           id="g4981">
          <path
             sodipodi:nodetypes="cccccccccccccccccccccccccccccccccccsscccccccc"
             inkscape:connector-curvature="0"
             id="path4983"
             d="m -1401.5488,804.40434 c 4.466,0.081 8.7495,0.41434 12.8125,1.02734 44.43,7.528 84.4913,38.12359 115.5293,103.05859 1.538,22.875 -2.7832,45.87102 -8.0762,69.41602 -0.043,-0.0459 -0.084,-0.0908 -0.127,-0.13672 l 0.8164,10.87109 -4.1113,7.70899 -8.2235,4.11015 c 15.2467,10.6077 15.4959,32.715 20.8583,56.9738 2.172,11.292 -0.3317,20.3374 -0.5137,20.6914 -0.416,0.411 -0.6481,0.643 -0.8281,0.793 -2.9564,10.8882 -20.7397,-0.2202 -25.4219,7.1621 -2.004,2.798 -2.1322,6.2565 -5.3822,10.5565 -13.3072,-3.6391 -57.7186,-23.894 -59.0943,27.7931 27.1682,0.9601 43.5695,9.2184 47.0625,16.6484 -8.5211,5.5614 -18.4455,2.3726 -12.5391,24.5645 -0.345,2.202 -11.2635,14.3279 -11.4785,15.0449 -12.072,5.706 -28.4784,-0.4347 -40.9414,-4.9707 -96.7554,-36.965 -141.9412,-103.0457 -138.0582,-205.28903 3.588,-84.25461 -10.1257,-164.98719 113.191,-166.02343 1.528,-0.028 3.0374,-0.028 4.5254,-0.002 z m -56.2032,131.47447 c -0.801,-0.0278 -1.5967,-0.026 -2.3867,0.004 -11.059,0.424 -21.0049,6.44219 -28.7051,14.11719 -25.2554,25.52702 -16.4571,69.743 8.3086,92.9824 6.992,6.1 14.2544,10.3502 20.4024,13.1602 3.075,1.406 5.8686,2.4515 8.3086,3.1875 2.44,0.735 4.1599,1.2534 6.9199,1.2754 l 0.1465,-18 c 0.993,0.01 -0.341,-0.05 -1.875,-0.5117 -1.532,-0.4622 -3.6387,-1.2334 -6.0137,-2.3204 -4.754,-2.174 -10.6186,-5.6124 -16.0586,-10.3554 -10.88,-9.488 -20.19,-23.4141 -18.414,-45.74612 0.49,-6.14501 4.8154,-14.77688 10.9804,-20.92188 6.168,-6.145 13.5901,-9.38664 18.8301,-8.80664 1.057,0.117 3.5228,1.37214 6.3828,4.74414 2.86,3.372 5.8004,8.36731 8.2324,13.44531 4.864,10.155 7.7539,20.31446 7.7539,20.31446 l 17.3262,-4.87891 c 0,0 -3.1677,-11.356 -8.8437,-23.20898 -2.838,-5.92701 -6.2863,-12.06052 -10.7403,-17.3125 -4.454,-5.25402 -10.2287,-10.11915 -18.1367,-10.99415 -0.811,-0.089 -1.618,-0.14582 -2.418,-0.17382 z"
             style="fill:#ffffff" />
          <path
             id="path4985"
             d="m -1350.4531,948.41406 -6.2246,13.64844 c 11.7905,5.37703 23.3898,19.3353 33.5644,29.68359 l -20.5566,-7.30273 -4.4629,8.86133 36.8301,24.74411 11.5195,-15.3574 c 4.2078,-1.5324 6.9335,-5.07189 8.7012,-8.88281 1.8161,-3.91545 3.0127,-8.62359 4.0136,-14.75 l -14.8027,-2.41797 c -0.8758,5.36038 -1.9594,9.00365 -2.8184,10.85547 -0.1096,0.23632 -0.1049,0.17941 -0.1933,0.34571 -1.142,-0.6942 -2.911,-2.06161 -5.043,-4.125 -9.0694,-8.77757 -22.2197,-26.95365 -40.5273,-35.30274 z"
             style="color:#000000;font-style:normal;font-variant:normal;font-weight:normal;font-stretch:normal;font-size:medium;line-height:normal;font-family:sans-serif;text-indent:0;text-align:start;text-decoration:none;text-decoration-line:none;text-decoration-style:solid;text-decoration-color:#000000;letter-spacing:normal;word-spacing:normal;text-transform:none;direction:ltr;block-progression:tb;writing-mode:lr-tb;baseline-shift:baseline;text-anchor:start;white-space:normal;clip-rule:nonzero;display:inline;overflow:visible;visibility:visible;opacity:1;isolation:auto;mix-blend-mode:normal;color-interpolation:sRGB;color-interpolation-filters:linearRGB;solid-color:#000000;solid-opacity:1;fill:#000000;fill-opacity:1;fill-rule:evenodd;stroke:none;stroke-width:15;stroke-linecap:butt;stroke-linejoin:miter;stroke-miterlimit:4;stroke-dasharray:none;stroke-dashoffset:0;stroke-opacity:1;color-rendering:auto;image-rendering:auto;shape-rendering:auto;text-rendering:auto;enable-background:accumulate"
             inkscape:connector-curvature="0" />
          <path
             inkscape:connector-curvature="0"
             id="path4987"
             d="m -1339.873,1097.2129 c -3.3521,-0.092 -6.6732,2.6146 -9.2852,6.2422 l 8.7598,5.0058 -11.4121,-0.5097 c -1.755,3.6267 -2.746,7.4103 -2.4649,10.0176 8.9358,0.8285 25.3577,4.7163 34.207,8.8378 0.736,-2.573 1.0466,-6.4302 2.0293,-10.4277 l -12.6797,-5.3926 13.7403,1.8614 c 1.4099,-3.9694 3.4154,-7.7453 4.4687,-10.1915 -6.5027,-2.4746 -20.328,-5.5997 -27.3632,-5.4433 z"
             style="fill:#ffffff;fill-rule:evenodd;stroke:none;stroke-width:1px;stroke-linecap:butt;stroke-linejoin:miter;stroke-opacity:1" />
        </g>
        <g
           id="g4989"
           transform="matrix(0.94909309,0,0,0.94909309,-69.71232,48.03966)">
          <path
             style="fill:#ffffff"
             d="m -1401.5488,804.40234 c -1.488,-0.026 -2.9974,-0.026 -4.5254,0.002 -123.3167,1.03624 -109.603,81.76882 -113.191,166.02343 -3.883,102.24333 41.3028,168.32403 138.0582,205.28903 12.463,4.536 28.8694,10.6767 40.9414,4.9707 0.215,-0.717 11.1335,-12.8429 11.4785,-15.0449 -5.9064,-22.1919 4.018,-19.0031 12.5391,-24.5645 -3.493,-7.43 -19.8943,-15.6883 -47.0625,-16.6484 1.3757,-51.6871 45.7871,-31.4322 59.0943,-27.7931 3.25,-4.3 3.3782,-7.7585 5.3822,-10.5565 4.6822,-7.3823 22.4655,3.7261 25.4219,-7.1621 0.18,-0.15 0.4121,-0.382 0.8281,-0.793 0.182,-0.354 2.6857,-9.3994 0.5137,-20.6914 -5.3624,-24.2588 -5.6116,-46.3661 -20.8583,-56.9738 l 8.2235,-4.11015 4.1113,-7.70899 -0.8164,-10.87109 c 0.043,0.0459 0.084,0.0908 0.127,0.13672 5.293,-23.545 9.6142,-46.54102 8.0762,-69.41602 -31.038,-64.935 -71.0993,-95.53059 -115.5293,-103.05859 -4.063,-0.613 -8.3465,-0.94634 -12.8125,-1.02734 z m -56.2032,131.47657 c 0.8,0.028 1.607,0.0848 2.418,0.17382 7.908,0.875 13.6827,5.74013 18.1367,10.99415 4.454,5.25198 7.9023,11.38549 10.7403,17.3125 5.676,11.85298 8.8437,23.20898 8.8437,23.20898 l -17.3262,4.87891 c 0,0 -2.8899,-10.15946 -7.7539,-20.31446 -2.432,-5.078 -5.3724,-10.07331 -8.2324,-13.44531 -2.86,-3.372 -5.3258,-4.62714 -6.3828,-4.74414 -5.24,-0.58 -12.6621,2.66164 -18.8301,8.80664 -6.165,6.145 -10.4904,14.77687 -10.9804,20.92188 -1.776,22.33202 7.534,36.25812 18.414,45.74612 5.44,4.743 11.3046,8.1814 16.0586,10.3554 2.375,1.087 4.4817,1.8582 6.0137,2.3204 1.534,0.4618 2.868,0.5197 1.875,0.5117 l -0.1465,18 c -2.76,-0.022 -4.4799,-0.5404 -6.9199,-1.2754 -2.44,-0.736 -5.2336,-1.7815 -8.3086,-3.1875 -6.148,-2.81 -13.4104,-7.0602 -20.4024,-13.1602 -24.7657,-23.2394 -33.564,-67.45538 -8.3086,-92.9824 7.7002,-7.675 17.6461,-13.69319 28.7051,-14.11719 0.79,-0.03 1.5857,-0.0318 2.3867,-0.004 z"
             id="path4991"
             inkscape:connector-curvature="0"
             sodipodi:nodetypes="cccccccccccccccccccccccccccccsscccccccccccccc" />
          <path
             inkscape:connector-curvature="0"
             style="color:#000000;font-style:normal;font-variant:normal;font-weight:normal;font-stretch:normal;font-size:medium;line-height:normal;font-family:sans-serif;text-indent:0;text-align:start;text-decoration:none;text-decoration-line:none;text-decoration-style:solid;text-decoration-color:#000000;letter-spacing:normal;word-spacing:normal;text-transform:none;direction:ltr;block-progression:tb;writing-mode:lr-tb;baseline-shift:baseline;text-anchor:start;white-space:normal;clip-rule:nonzero;display:inline;overflow:visible;visibility:visible;opacity:1;isolation:auto;mix-blend-mode:normal;color-interpolation:sRGB;color-interpolation-filters:linearRGB;solid-color:#000000;solid-opacity:1;fill:#000000;fill-opacity:1;fill-rule:evenodd;stroke:none;stroke-width:15;stroke-linecap:butt;stroke-linejoin:miter;stroke-miterlimit:4;stroke-dasharray:none;stroke-dashoffset:0;stroke-opacity:1;color-rendering:auto;image-rendering:auto;shape-rendering:auto;text-rendering:auto;enable-background:accumulate"
             d="m -1350.4531,948.41406 -6.2246,13.64844 c 11.7905,5.37703 23.3898,19.3353 33.5644,29.68359 l -20.5566,-7.30273 -4.4629,8.86133 36.8301,24.74411 11.5195,-15.3574 c 4.2078,-1.5324 6.9335,-5.07189 8.7012,-8.88281 1.8161,-3.91545 3.0127,-8.62359 4.0136,-14.75 l -14.8027,-2.41797 c -0.8758,5.36038 -1.9594,9.00365 -2.8184,10.85547 -0.1096,0.23632 -0.1049,0.17941 -0.1933,0.34571 -1.142,-0.6942 -2.911,-2.06161 -5.043,-4.125 -9.0694,-8.77757 -22.2197,-26.95365 -40.5273,-35.30274 z"
             id="path4993" />
          <path
             style="fill:#ffffff;fill-rule:evenodd;stroke:none;stroke-width:1px;stroke-linecap:butt;stroke-linejoin:miter;stroke-opacity:1"
             d="m -1339.873,1097.2129 c -3.3521,-0.092 -6.6732,2.6146 -9.2852,6.2422 l 8.7598,5.0058 -11.4121,-0.5097 c -1.755,3.6267 -2.746,7.4103 -2.4649,10.0176 8.9358,0.8285 25.3577,4.7163 34.207,8.8378 0.736,-2.573 1.0466,-6.4302 2.0293,-10.4277 l -12.6797,-5.3926 13.7403,1.8614 c 1.4099,-3.9694 3.4154,-7.7453 4.4687,-10.1915 -6.5027,-2.4746 -20.328,-5.5997 -27.3632,-5.4433 z"
             id="path4995"
             inkscape:connector-curvature="0" />
        </g>
      </g>
      <g
         id="g5241">
        <g
           style="font-style:normal;font-variant:normal;font-weight:normal;font-stretch:normal;font-size:medium;line-height:100%;font-family:'Luckiest Guy';-inkscape-font-specification:'Luckiest Guy';text-align:center;letter-spacing:0px;word-spacing:0px;writing-mode:lr-tb;text-anchor:middle;fill:#ffffff;fill-opacity:1;stroke:none;stroke-width:1px;stroke-linecap:butt;stroke-linejoin:miter;stroke-opacity:1"
           id="g4813"
           transform="matrix(1.6130008,0,0,1.6130008,762.6166,-15.30971)">
          <g
             style="font-style:normal;font-variant:normal;font-weight:normal;font-stretch:normal;font-size:72px;line-height:100%;font-family:'Luckiest Guy';-inkscape-font-specification:'Luckiest Guy';text-align:center;letter-spacing:0px;word-spacing:0px;writing-mode:lr-tb;text-anchor:middle;fill:#ffffff;fill-opacity:1;stroke:none;stroke-width:1px;stroke-linecap:butt;stroke-linejoin:miter;stroke-opacity:1"
             id="g4793"
             transform="translate(-22.31865,0)">
            <path
               d="m -1629.0669,751.63843 0,-51.67969 0,0 5.3789,0 5.4141,0 0,0 0,51.67969 0,0 -5.3789,0 -5.4141,0 0,0 z"
               style="font-style:normal;font-variant:normal;font-weight:bold;font-stretch:normal;font-family:Helvetica;-inkscape-font-specification:'Helvetica Bold';fill:#ffffff"
               id="path4795"
               inkscape:connector-curvature="0" />
          </g>
          <path
             d="m -1629.0669,751.63843 0,-51.67969 0,0 5.3789,0 5.4141,0 0,0 0,51.67969 0,0 -5.3789,0 -5.4141,0 0,0 z"
             style="font-style:normal;font-variant:normal;font-weight:bold;font-stretch:normal;font-family:Helvetica;-inkscape-font-specification:'Helvetica Bold';fill:#ffffff"
             id="path4803"
             inkscape:connector-curvature="0" />
        </g>
        <path
           inkscape:connector-curvature="0"
           id="path5143"
           style="font-style:normal;font-variant:normal;font-weight:bold;font-stretch:normal;font-size:medium;line-height:100%;font-family:Helvetica;-inkscape-font-specification:'Helvetica Bold';text-align:center;letter-spacing:0px;word-spacing:0px;writing-mode:lr-tb;text-anchor:middle;fill:#ffffff;fill-opacity:1;stroke:none;stroke-width:1px;stroke-linecap:butt;stroke-linejoin:miter;stroke-opacity:1"
           d="m -1916.0448,1113.7243 83.3594,0 0,0 0,8.6762 0,8.7329 0,0 -83.3594,0 0,0 0,-8.6762 0,-8.7329 0,0 z" />
        <path
           d="m -1916.0448,1179.6746 83.3594,0 0,0 0,8.6762 0,8.7329 0,0 -83.3594,0 0,0 0,-8.6762 0,-8.7329 0,0 z"
           style="font-style:normal;font-variant:normal;font-weight:bold;font-stretch:normal;font-size:medium;line-height:100%;font-family:Helvetica;-inkscape-font-specification:'Helvetica Bold';text-align:center;letter-spacing:0px;word-spacing:0px;writing-mode:lr-tb;text-anchor:middle;fill:#ffffff;fill-opacity:1;stroke:none;stroke-width:1px;stroke-linecap:butt;stroke-linejoin:miter;stroke-opacity:1"
           id="path5171"
           inkscape:connector-curvature="0" />
      </g>
    </g>
  </g>
</svg>
