<?xml version="1.0" encoding="UTF-8" standalone="no"?>
<!-- Created with Inkscape (http://www.inkscape.org/) -->

<svg
   xmlns:dc="http://purl.org/dc/elements/1.1/"
   xmlns:cc="http://creativecommons.org/ns#"
   xmlns:rdf="http://www.w3.org/1999/02/22-rdf-syntax-ns#"
   xmlns:svg="http://www.w3.org/2000/svg"
   xmlns="http://www.w3.org/2000/svg"
   xmlns:sodipodi="http://sodipodi.sourceforge.net/DTD/sodipodi-0.dtd"
   xmlns:inkscape="http://www.inkscape.org/namespaces/inkscape"
   width="144.49779mm"
   height="145.06223mm"
   viewBox="0 0 512.00003 514.00001"
   id="svg8751"
   version="1.1"
   inkscape:version="0.91 r13725"
   sodipodi:docname="hill-conquest-i.svg">
  <defs
     id="defs8753" />
  <sodipodi:namedview
     id="base"
     pagecolor="#ffffff"
     bordercolor="#666666"
     borderopacity="1.0"
     inkscape:pageopacity="0.0"
     inkscape:pageshadow="2"
     inkscape:zoom="0.35"
     inkscape:cx="-619.00006"
     inkscape:cy="217.00005"
     inkscape:document-units="px"
     inkscape:current-layer="layer1"
     showgrid="false"
     inkscape:window-width="1920"
     inkscape:window-height="1058"
     inkscape:window-x="1432"
     inkscape:window-y="-8"
     inkscape:window-maximized="1"
     fit-margin-top="0"
     fit-margin-left="0"
     fit-margin-right="0"
     fit-margin-bottom="0" />
  <metadata
     id="metadata8756">
    <rdf:RDF>
      <cc:Work
         rdf:about="">
        <dc:format>image/svg+xml</dc:format>
        <dc:type
           rdf:resource="http://purl.org/dc/dcmitype/StillImage" />
        <dc:title></dc:title>
      </cc:Work>
    </rdf:RDF>
  </metadata>
  <g
     inkscape:label="Layer 1"
     inkscape:groupmode="layer"
     id="layer1"
     transform="translate(-121.14291,-235.36223)">
    <g
       transform="translate(2232.9874,963.28576)"
       id="g8711">
      <circle
         inkscape:export-ydpi="90"
         inkscape:export-xdpi="90"
         id="circle8595"
         r="256"
         cy="-471.92352"
         cx="-1855.8445"
         style="fill:#000000;stroke:#ffffff;stroke-width:0" />
      <path
         id="path8597"
         d="m -1864.8445,-652.92351 0,203.248 c -3.565,-0.103 -7.126,-0.164 -10.68,-0.154 -62.774,0.18 -123.48,18.017 -170.16,55.783 -18.406,14.89 -34.696,32.91 -48.16,54.28 l 0,125.843 208.92,0 c 43.583,-100.15 136.274,-151 230.414,-151 2.962,0 5.926,0.056 8.89,0.156 -1.515,-1.36 -3.045,-2.705 -4.59,-4.035 -53.44,-45.953 -125.055,-74.07 -196.634,-79.884 l 0,-99.66 c 27.09,-2.53 46.44,-15.576 71,-15.576 27.195,0 48,16 80,16 l 0,-80.001 c -32,0 -48,-16 -80,-16 -28.854,0 -44.703,13.005 -71,15.563 l 0,-24.563 z m 210.334,306 c -85.44,0 -168.606,43.956 -210.47,133 l 247.136,0 0,-130.27 c -12.176,-1.816 -24.436,-2.73 -36.666,-2.73 z"
         inkscape:connector-curvature="0"
         style="fill:#ffffff" />
      <g
         inkscape:export-ydpi="90"
         inkscape:export-xdpi="90"
         transform="translate(568.11336,-1701.2072)"
         id="g8665">
        <g
           transform="matrix(1.6130008,0,0,1.6130008,74.6166,-15.309715)"
           id="g8667"
           style="font-style:normal;font-variant:normal;font-weight:normal;font-stretch:normal;font-size:72px;line-height:100%;font-family:'Luckiest Guy';-inkscape-font-specification:'Luckiest Guy';text-align:center;letter-spacing:0px;word-spacing:0px;writing-mode:lr-tb;text-anchor:middle;fill:#ffffff;fill-opacity:1;stroke:none;stroke-width:1px;stroke-linecap:butt;stroke-linejoin:miter;stroke-opacity:1">
          <path
             inkscape:connector-curvature="0"
             id="path8669"
             style="font-style:normal;font-variant:normal;font-weight:bold;font-stretch:normal;font-family:Helvetica;-inkscape-font-specification:'Helvetica Bold';fill:#ffffff"
             d="m -1629.0669,751.63843 0,-51.67969 0,0 5.3789,0 5.4141,0 0,0 0,51.67969 0,0 -5.3789,0 -5.4141,0 0,0 z" />
        </g>
        <path
           d="m -2566.0448,1113.7243 43.3594,0 0,0 c 0,5.803 0,11.6061 0,17.4091 l 0,0 -43.3594,0 0,0 c 0,-5.803 0,-11.6061 0,-17.4091 z"
           style="font-style:normal;font-variant:normal;font-weight:bold;font-stretch:normal;font-size:medium;line-height:100%;font-family:Helvetica;-inkscape-font-specification:'Helvetica Bold';text-align:center;letter-spacing:0px;word-spacing:0px;writing-mode:lr-tb;text-anchor:middle;fill:#ffffff;fill-opacity:1;stroke:none;stroke-width:1px;stroke-linecap:butt;stroke-linejoin:miter;stroke-opacity:1"
           id="path8671"
           inkscape:connector-curvature="0"
           sodipodi:nodetypes="cccccccc" />
        <path
           sodipodi:nodetypes="cccccccc"
           inkscape:connector-curvature="0"
           id="path8673"
           style="font-style:normal;font-variant:normal;font-weight:bold;font-stretch:normal;font-size:medium;line-height:100%;font-family:Helvetica;-inkscape-font-specification:'Helvetica Bold';text-align:center;letter-spacing:0px;word-spacing:0px;writing-mode:lr-tb;text-anchor:middle;fill:#ffffff;fill-opacity:1;stroke:none;stroke-width:1px;stroke-linecap:butt;stroke-linejoin:miter;stroke-opacity:1"
           d="m -2566.0448,1179.6746 43.3594,0 0,0 c 0,5.803 0,11.6061 0,17.4091 l 0,0 -43.3594,0 0,0 c 0,-5.803 0,-11.6061 0,-17.4091 z" />
      </g>
    </g>
  </g>
</svg>
