<?xml version="1.0" encoding="UTF-8" standalone="no"?>
<!-- Created with Inkscape (http://www.inkscape.org/) -->

<svg
   xmlns:dc="http://purl.org/dc/elements/1.1/"
   xmlns:cc="http://creativecommons.org/ns#"
   xmlns:rdf="http://www.w3.org/1999/02/22-rdf-syntax-ns#"
   xmlns:svg="http://www.w3.org/2000/svg"
   xmlns="http://www.w3.org/2000/svg"
   xmlns:sodipodi="http://sodipodi.sourceforge.net/DTD/sodipodi-0.dtd"
   xmlns:inkscape="http://www.inkscape.org/namespaces/inkscape"
   width="144.49779mm"
   height="145.06223mm"
   viewBox="0 0 512.00003 514.00001"
   id="svg8751"
   version="1.1"
   inkscape:version="0.91 r13725"
   sodipodi:docname="hill-conquest-iv.svg">
  <defs
     id="defs8753" />
  <sodipodi:namedview
     id="base"
     pagecolor="#ffffff"
     bordercolor="#666666"
     borderopacity="1.0"
     inkscape:pageopacity="0.0"
     inkscape:pageshadow="2"
     inkscape:zoom="0.35"
     inkscape:cx="-587.57146"
     inkscape:cy="228.42858"
     inkscape:document-units="px"
     inkscape:current-layer="layer1"
     showgrid="false"
     inkscape:window-width="1920"
     inkscape:window-height="1058"
     inkscape:window-x="1432"
     inkscape:window-y="-8"
     inkscape:window-maximized="1"
     fit-margin-top="0"
     fit-margin-left="0"
     fit-margin-right="0"
     fit-margin-bottom="0" />
  <metadata
     id="metadata8756">
    <rdf:RDF>
      <cc:Work
         rdf:about="">
        <dc:format>image/svg+xml</dc:format>
        <dc:type
           rdf:resource="http://purl.org/dc/dcmitype/StillImage" />
        <dc:title></dc:title>
      </cc:Work>
    </rdf:RDF>
  </metadata>
  <g
     inkscape:label="Layer 1"
     inkscape:groupmode="layer"
     id="layer1"
     transform="translate(-89.714313,-246.79078)">
    <g
       transform="translate(1601.5588,364.71429)"
       id="g8736">
      <circle
         inkscape:export-ydpi="90"
         inkscape:export-xdpi="90"
         id="circle4147"
         r="256"
         cy="138.07649"
         cx="-1255.8445"
         style="fill:#000000;stroke:#ffffff;stroke-width:0" />
      <path
         id="path4149"
         d="m -1264.8445,-42.92351 0,203.248 c -3.565,-0.103 -7.126,-0.164 -10.68,-0.154 -62.774,0.18 -123.48,18.017 -170.16,55.783 -18.406,14.89 -34.696,32.91 -48.16,54.28 l 0,125.843 208.92,0 c 43.583,-100.15 136.274,-151 230.414,-151 2.962,0 5.926,0.056 8.89,0.156 -1.515,-1.36 -3.045,-2.705 -4.59,-4.035 -53.44,-45.953 -125.055,-74.07 -196.634,-79.884 l 0,-99.66 c 27.09,-2.53 46.44,-15.576 71,-15.576 27.195,0 48,16 80,16 l 0,-80.001 c -32,0 -48,-16 -80,-16 -28.854,0 -44.703,13.005 -71,15.563 l 0,-24.563 z m 210.334,306 c -85.44,0 -168.606,43.956 -210.47,133 l 247.136,0 0,-130.27 c -12.176,-1.816 -24.436,-2.73 -36.666,-2.73 z"
         inkscape:connector-curvature="0"
         style="fill:#ffffff" />
      <g
         id="g8689"
         transform="translate(-121.88664,-1741.2072)">
        <g
           transform="matrix(1.6130008,0,0,1.6130008,1328.6166,634.69029)"
           id="g8691"
           style="font-style:normal;font-variant:normal;font-weight:normal;font-stretch:normal;font-size:72px;line-height:100%;font-family:'Luckiest Guy';-inkscape-font-specification:'Luckiest Guy';text-align:center;letter-spacing:0px;word-spacing:0px;writing-mode:lr-tb;text-anchor:middle;fill:#ffffff;fill-opacity:1;stroke:none;stroke-width:1px;stroke-linecap:butt;stroke-linejoin:miter;stroke-opacity:1">
          <path
             inkscape:connector-curvature="0"
             id="path8693"
             style="font-style:normal;font-variant:normal;font-weight:bold;font-stretch:normal;font-family:Helvetica;-inkscape-font-specification:'Helvetica Bold';fill:#ffffff"
             d="m -1629.0669,751.63843 0,-51.67969 0,0 5.3789,0 5.4141,0 0,0 0,51.67969 0,0 -5.3789,0 -5.4141,0 0,0 z" />
        </g>
        <g
           style="font-style:normal;font-variant:normal;font-weight:normal;font-stretch:normal;font-size:72px;line-height:100%;font-family:'Luckiest Guy';-inkscape-font-specification:'Luckiest Guy';text-align:center;letter-spacing:0px;word-spacing:0px;writing-mode:lr-tb;text-anchor:middle;fill:#ffffff;fill-opacity:1;stroke:none;stroke-width:1px;stroke-linecap:butt;stroke-linejoin:miter;stroke-opacity:1"
           id="g8695"
           transform="matrix(1.6130008,0,0,1.6130008,1357.6166,634.69029)">
          <path
             d="m -1616.6677,751.63843 -12.3992,-51.67969 0,0 5.3789,0 5.4141,0 0,0 12.3992,51.67969 0,0 z"
             style="font-style:normal;font-variant:normal;font-weight:bold;font-stretch:normal;font-family:Helvetica;-inkscape-font-specification:'Helvetica Bold';fill:#ffffff"
             id="path8697"
             inkscape:connector-curvature="0"
             sodipodi:nodetypes="ccccccccc" />
        </g>
        <g
           transform="matrix(1.6130008,0,0,1.6130008,1406.6166,634.69029)"
           id="g8699"
           style="font-style:normal;font-variant:normal;font-weight:normal;font-stretch:normal;font-size:72px;line-height:100%;font-family:'Luckiest Guy';-inkscape-font-specification:'Luckiest Guy';text-align:center;letter-spacing:0px;word-spacing:0px;writing-mode:lr-tb;text-anchor:middle;fill:#ffffff;fill-opacity:1;stroke:none;stroke-width:1px;stroke-linecap:butt;stroke-linejoin:miter;stroke-opacity:1">
          <path
             inkscape:connector-curvature="0"
             id="path8701"
             style="font-style:normal;font-variant:normal;font-weight:bold;font-stretch:normal;font-family:Helvetica;-inkscape-font-specification:'Helvetica Bold';fill:#ffffff"
             d="m -1641.4661,751.63843 12.3992,-51.67969 0,0 5.3789,0 5.4141,0 0,0 -12.3992,51.67969 0,0 z"
             sodipodi:nodetypes="ccccccccc" />
        </g>
        <g
           transform="matrix(0,1.6130008,-1.6130008,0,-65.6514,4391.4105)"
           id="g8703"
           style="font-style:normal;font-variant:normal;font-weight:normal;font-stretch:normal;font-size:72px;line-height:100%;font-family:'Luckiest Guy';-inkscape-font-specification:'Luckiest Guy';text-align:center;letter-spacing:0px;word-spacing:0px;writing-mode:lr-tb;text-anchor:middle;fill:#ffffff;fill-opacity:1;stroke:none;stroke-width:1px;stroke-linecap:butt;stroke-linejoin:miter;stroke-opacity:1">
          <path
             d="m -1629.0669,751.63843 0,-51.67969 0,0 5.3789,0 5.4141,0 0,0 0,51.67969 0,0 -5.3789,0 -5.4141,0 0,0 z m 0,22.31865 0,-51.67969 0,0 5.3789,0 5.4141,0 0,0 0,51.67969 0,0 -5.3789,0 -5.4141,0 0,0 z"
             style="font-style:normal;font-variant:normal;font-weight:bold;font-stretch:normal;font-family:Helvetica;-inkscape-font-specification:'Helvetica Bold';fill:#ffffff"
             id="path8705"
             inkscape:connector-curvature="0" />
        </g>
        <g
           style="font-style:normal;font-variant:normal;font-weight:normal;font-stretch:normal;font-size:72px;line-height:100%;font-family:'Luckiest Guy';-inkscape-font-specification:'Luckiest Guy';text-align:center;letter-spacing:0px;word-spacing:0px;writing-mode:lr-tb;text-anchor:middle;fill:#ffffff;fill-opacity:1;stroke:none;stroke-width:1px;stroke-linecap:butt;stroke-linejoin:miter;stroke-opacity:1"
           id="g8707"
           transform="matrix(0,1.6130008,-1.6130008,0,-65.6514,4457.3608)">
          <path
             inkscape:connector-curvature="0"
             id="path8709"
             style="font-style:normal;font-variant:normal;font-weight:bold;font-stretch:normal;font-family:Helvetica;-inkscape-font-specification:'Helvetica Bold';fill:#ffffff"
             d="m -1629.0669,751.63843 0,-51.67969 0,0 5.3789,0 5.4141,0 0,0 0,51.67969 0,0 -5.3789,0 -5.4141,0 0,0 z m 0,22.31865 0,-51.67969 0,0 5.3789,0 5.4141,0 0,0 0,51.67969 0,0 -5.3789,0 -5.4141,0 0,0 z" />
        </g>
      </g>
    </g>
  </g>
</svg>
