<?xml version="1.0" encoding="UTF-8" standalone="no"?>
<!-- Created with Inkscape (http://www.inkscape.org/) -->

<svg
   xmlns:dc="http://purl.org/dc/elements/1.1/"
   xmlns:cc="http://creativecommons.org/ns#"
   xmlns:rdf="http://www.w3.org/1999/02/22-rdf-syntax-ns#"
   xmlns:svg="http://www.w3.org/2000/svg"
   xmlns="http://www.w3.org/2000/svg"
   xmlns:sodipodi="http://sodipodi.sourceforge.net/DTD/sodipodi-0.dtd"
   xmlns:inkscape="http://www.inkscape.org/namespaces/inkscape"
   width="144.49779mm"
   height="144.49779mm"
   viewBox="0 0 512.00003 512.00003"
   id="svg4159"
   version="1.1"
   inkscape:version="0.91 r13725"
   sodipodi:docname="photo-camera-ii.svg">
  <defs
     id="defs4161" />
  <sodipodi:namedview
     id="base"
     pagecolor="#ffffff"
     bordercolor="#666666"
     borderopacity="1.0"
     inkscape:pageopacity="0.0"
     inkscape:pageshadow="2"
     inkscape:zoom="0.35"
     inkscape:cx="-136.14285"
     inkscape:cy="238.85715"
     inkscape:document-units="px"
     inkscape:current-layer="layer1"
     showgrid="false"
     inkscape:window-width="1920"
     inkscape:window-height="1058"
     inkscape:window-x="1432"
     inkscape:window-y="-8"
     inkscape:window-maximized="1"
     fit-margin-top="0"
     fit-margin-left="0"
     fit-margin-right="0"
     fit-margin-bottom="0" />
  <metadata
     id="metadata4164">
    <rdf:RDF>
      <cc:Work
         rdf:about="">
        <dc:format>image/svg+xml</dc:format>
        <dc:type
           rdf:resource="http://purl.org/dc/dcmitype/StillImage" />
        <dc:title></dc:title>
      </cc:Work>
    </rdf:RDF>
  </metadata>
  <g
     inkscape:label="Layer 1"
     inkscape:groupmode="layer"
     id="layer1"
     transform="translate(-83.999992,-259.21934)">
    <g
       transform="translate(214.28571,-434.28572)"
       id="g10111">
      <circle
         style="fill:#000000;stroke:#ffffff;stroke-width:0"
         cx="125.71429"
         cy="949.50507"
         r="256"
         id="circle9926" />
      <path
         style="fill:#ffffff"
         inkscape:connector-curvature="0"
         d="m -70.67099,877.55986 0,12.78788 56.63204,0 0,-12.78788 z m 141.33348,0 -29.22944,29.22944 -24.41572,0 0,42.01732 28.02554,0 c 22.5779,-37.08304 63.3895,-61.89152 109.90086,-61.89152 46.51133,0 87.32295,24.80848 109.90084,61.89152 l 71.86972,0 0,-42.01732 -68.25988,0 -29.22944,-29.22944 c -84.28124,-8.2208 -84.28124,-8.2208 -168.56248,0 z m 84.28124,25.7968 c -62.02396,0 -112.1296,50.10564 -112.1296,112.12964 0,62.0238 50.10564,112.1296 112.1296,112.1296 62.02396,0 112.1296,-50.1058 112.1296,-112.1296 0,-62.024 -50.10564,-112.12964 -112.1296,-112.12964 z m -240.22944,3.43264 0,42.01732 85.86148,0 0,-42.01732 z m 240.22944,13.43912 c 52.51252,0 95.25782,42.7444 95.25782,95.25688 0,52.5125 -42.7453,95.2588 -95.25782,95.2588 -52.51252,0 -95.25784,-42.7454 -95.25784,-95.2578 0,-52.51256 42.74532,-95.25788 95.25784,-95.25788 z m -19.90068,20.1336 c -11.11908,0.38364 -23.49044,5.961 -33.5956,15.14268 -18.29123,16.61512 -24.06128,40.0562 -12.88836,52.3554 11.17296,12.2994 35.05708,8.8 53.34924,-7.817 18.2894,-16.61696 24.05948,-40.05808 12.88652,-52.35728 -4.56712,-5.02744 -11.52736,-7.60876 -19.75272,-7.3238 z m -220.32876,24.88615 0,129.70573 85.86148,0 0,-129.70573 z m 102.30304,0 0,129.70573 36.91312,0 c -17.25268,-21.8856 -27.55788,-49.4918 -27.55788,-79.4676 0,-17.81812 3.64272,-34.79768 10.21933,-50.23813 z m 256.2782,0 c 6.57664,15.44045 10.21936,32.42001 10.21936,50.23813 0,29.9758 -10.3052,57.582 -27.55788,79.4676 l 80.75728,0 0,-129.70573 z m -358.58124,146.14733 0,12.7876 85.86148,0 0,-12.7876 z m 102.30304,0 0,12.7876 69.31944,0 c -5.99844,-3.798 -11.658,-8.08 -16.93116,-12.7876 z m 223.46452,0 c -5.27316,4.7076 -10.93364,8.9896 -16.93024,12.7876 l 113.16268,0 0,-12.7876 z"
         id="path9928" />
      <g
         id="g10048"
         transform="translate(2000.0794,-367.71446)">
        <g
           style="font-style:normal;font-variant:normal;font-weight:normal;font-stretch:normal;font-size:medium;line-height:100%;font-family:'Luckiest Guy';-inkscape-font-specification:'Luckiest Guy';text-align:center;letter-spacing:0px;word-spacing:0px;writing-mode:lr-tb;text-anchor:middle;fill:#ffffff;fill-opacity:1;stroke:none;stroke-width:1px;stroke-linecap:butt;stroke-linejoin:miter;stroke-opacity:1"
           id="g10050"
           transform="matrix(1.6130008,0,0,1.6130008,762.6166,-15.30971)">
          <g
             style="font-style:normal;font-variant:normal;font-weight:normal;font-stretch:normal;font-size:72px;line-height:100%;font-family:'Luckiest Guy';-inkscape-font-specification:'Luckiest Guy';text-align:center;letter-spacing:0px;word-spacing:0px;writing-mode:lr-tb;text-anchor:middle;fill:#ffffff;fill-opacity:1;stroke:none;stroke-width:1px;stroke-linecap:butt;stroke-linejoin:miter;stroke-opacity:1"
             id="g10052"
             transform="translate(-22.31865,0)">
            <path
               d="m -1629.0669,751.63843 0,-51.67969 0,0 5.3789,0 5.4141,0 0,0 0,51.67969 0,0 -5.3789,0 -5.4141,0 0,0 z"
               style="font-style:normal;font-variant:normal;font-weight:bold;font-stretch:normal;font-family:Helvetica;-inkscape-font-specification:'Helvetica Bold';fill:#ffffff"
               id="path10054"
               inkscape:connector-curvature="0" />
          </g>
          <path
             d="m -1629.0669,751.63843 0,-51.67969 0,0 5.3789,0 5.4141,0 0,0 0,51.67969 0,0 -5.3789,0 -5.4141,0 0,0 z"
             style="font-style:normal;font-variant:normal;font-weight:bold;font-stretch:normal;font-family:Helvetica;-inkscape-font-specification:'Helvetica Bold';fill:#ffffff"
             id="path10056"
             inkscape:connector-curvature="0" />
        </g>
        <path
           inkscape:connector-curvature="0"
           id="path10058"
           style="font-style:normal;font-variant:normal;font-weight:bold;font-stretch:normal;font-size:medium;line-height:100%;font-family:Helvetica;-inkscape-font-specification:'Helvetica Bold';text-align:center;letter-spacing:0px;word-spacing:0px;writing-mode:lr-tb;text-anchor:middle;fill:#ffffff;fill-opacity:1;stroke:none;stroke-width:1px;stroke-linecap:butt;stroke-linejoin:miter;stroke-opacity:1"
           d="m -1916.0448,1113.7243 83.3594,0 0,0 0,8.6762 0,8.7329 0,0 -83.3594,0 0,0 0,-8.6762 0,-8.7329 0,0 z" />
        <path
           d="m -1916.0448,1179.6746 83.3594,0 0,0 0,8.6762 0,8.7329 0,0 -83.3594,0 0,0 0,-8.6762 0,-8.7329 0,0 z"
           style="font-style:normal;font-variant:normal;font-weight:bold;font-stretch:normal;font-size:medium;line-height:100%;font-family:Helvetica;-inkscape-font-specification:'Helvetica Bold';text-align:center;letter-spacing:0px;word-spacing:0px;writing-mode:lr-tb;text-anchor:middle;fill:#ffffff;fill-opacity:1;stroke:none;stroke-width:1px;stroke-linecap:butt;stroke-linejoin:miter;stroke-opacity:1"
           id="path10060"
           inkscape:connector-curvature="0" />
      </g>
    </g>
  </g>
</svg>
