<?xml version="1.0" encoding="UTF-8" standalone="no"?>
<!-- Created with Inkscape (http://www.inkscape.org/) -->

<svg
   xmlns:dc="http://purl.org/dc/elements/1.1/"
   xmlns:cc="http://creativecommons.org/ns#"
   xmlns:rdf="http://www.w3.org/1999/02/22-rdf-syntax-ns#"
   xmlns:svg="http://www.w3.org/2000/svg"
   xmlns="http://www.w3.org/2000/svg"
   xmlns:sodipodi="http://sodipodi.sourceforge.net/DTD/sodipodi-0.dtd"
   xmlns:inkscape="http://www.inkscape.org/namespaces/inkscape"
   width="144.49779mm"
   height="144.49779mm"
   viewBox="0 0 512.00003 512.00003"
   id="svg4159"
   version="1.1"
   inkscape:version="0.91 r13725"
   sodipodi:docname="photo-camera-iv.svg">
  <defs
     id="defs4161" />
  <sodipodi:namedview
     id="base"
     pagecolor="#ffffff"
     bordercolor="#666666"
     borderopacity="1.0"
     inkscape:pageopacity="0.0"
     inkscape:pageshadow="2"
     inkscape:zoom="0.35"
     inkscape:cx="-156.14286"
     inkscape:cy="238.85723"
     inkscape:document-units="px"
     inkscape:current-layer="layer1"
     showgrid="false"
     inkscape:window-width="1920"
     inkscape:window-height="1058"
     inkscape:window-x="1432"
     inkscape:window-y="-8"
     inkscape:window-maximized="1"
     fit-margin-top="0"
     fit-margin-left="0"
     fit-margin-right="0"
     fit-margin-bottom="0" />
  <metadata
     id="metadata4164">
    <rdf:RDF>
      <cc:Work
         rdf:about="">
        <dc:format>image/svg+xml</dc:format>
        <dc:type
           rdf:resource="http://purl.org/dc/dcmitype/StillImage" />
        <dc:title></dc:title>
      </cc:Work>
    </rdf:RDF>
  </metadata>
  <g
     inkscape:label="Layer 1"
     inkscape:groupmode="layer"
     id="layer1"
     transform="translate(-104,-259.21942)">
    <g
       transform="translate(834.28571,-1034.2857)"
       id="g10138">
      <circle
         style="fill:#000000;stroke:#ffffff;stroke-width:0"
         cx="-474.28571"
         cy="1549.5051"
         r="256"
         id="circle9954" />
      <path
         style="fill:#ffffff"
         inkscape:connector-curvature="0"
         d="m -670.67099,1477.5599 0,12.7878 56.63204,0 0,-12.7878 z m 141.33348,0 -29.22944,29.2294 -24.41572,0 0,42.0173 28.02554,0 c 22.5779,-37.083 63.3895,-61.8915 109.90086,-61.8915 46.51133,0 87.32295,24.8085 109.90084,61.8915 l 71.86972,0 0,-42.0173 -68.25988,0 -29.22944,-29.2294 c -84.28124,-8.2208 -84.28124,-8.2208 -168.56248,0 z m 84.28124,25.7968 c -62.02396,0 -112.1296,50.1056 -112.1296,112.1296 0,62.0238 50.10564,112.1296 112.1296,112.1296 62.02396,0 112.1296,-50.1058 112.1296,-112.1296 0,-62.024 -50.10564,-112.1296 -112.1296,-112.1296 z m -240.22944,3.4326 0,42.0173 85.86148,0 0,-42.0173 z m 240.22944,13.4391 c 52.51252,0 95.25782,42.7444 95.25782,95.2569 0,52.5125 -42.7453,95.2588 -95.25782,95.2588 -52.51252,0 -95.25784,-42.7454 -95.25784,-95.2578 0,-52.5126 42.74532,-95.2579 95.25784,-95.2579 z m -19.90068,20.1336 c -11.11908,0.3837 -23.49044,5.961 -33.5956,15.1427 -18.29123,16.6151 -24.06128,40.0562 -12.88836,52.3554 11.17296,12.2994 35.05708,8.8 53.34924,-7.817 18.2894,-16.617 24.05948,-40.0581 12.88652,-52.3573 -4.56712,-5.0274 -11.52736,-7.6087 -19.75272,-7.3238 z m -220.32876,24.8862 0,129.7057 85.86148,0 0,-129.7057 z m 102.30304,0 0,129.7057 36.91312,0 c -17.25268,-21.8856 -27.55788,-49.4918 -27.55788,-79.4676 0,-17.8181 3.64272,-34.7977 10.21933,-50.2381 z m 256.2782,0 c 6.57664,15.4404 10.21936,32.42 10.21936,50.2381 0,29.9758 -10.3052,57.582 -27.55788,79.4676 l 80.75728,0 0,-129.7057 z m -358.58124,146.1473 0,12.7876 85.86148,0 0,-12.7876 z m 102.30304,0 0,12.7876 69.31944,0 c -5.99844,-3.798 -11.658,-8.08 -16.93116,-12.7876 z m 223.46452,0 c -5.27316,4.7076 -10.93364,8.9896 -16.93024,12.7876 l 113.16268,0 0,-12.7876 z"
         id="path9956" />
      <g
         id="g10062"
         transform="translate(780.07939,-417.71446)">
        <g
           transform="matrix(1.6130008,0,0,1.6130008,1328.6166,634.69029)"
           id="g10064"
           style="font-style:normal;font-variant:normal;font-weight:normal;font-stretch:normal;font-size:72px;line-height:100%;font-family:'Luckiest Guy';-inkscape-font-specification:'Luckiest Guy';text-align:center;letter-spacing:0px;word-spacing:0px;writing-mode:lr-tb;text-anchor:middle;fill:#ffffff;fill-opacity:1;stroke:none;stroke-width:1px;stroke-linecap:butt;stroke-linejoin:miter;stroke-opacity:1">
          <path
             inkscape:connector-curvature="0"
             id="path10066"
             style="font-style:normal;font-variant:normal;font-weight:bold;font-stretch:normal;font-family:Helvetica;-inkscape-font-specification:'Helvetica Bold';fill:#ffffff"
             d="m -1629.0669,751.63843 0,-51.67969 0,0 5.3789,0 5.4141,0 0,0 0,51.67969 0,0 -5.3789,0 -5.4141,0 0,0 z" />
        </g>
        <g
           style="font-style:normal;font-variant:normal;font-weight:normal;font-stretch:normal;font-size:72px;line-height:100%;font-family:'Luckiest Guy';-inkscape-font-specification:'Luckiest Guy';text-align:center;letter-spacing:0px;word-spacing:0px;writing-mode:lr-tb;text-anchor:middle;fill:#ffffff;fill-opacity:1;stroke:none;stroke-width:1px;stroke-linecap:butt;stroke-linejoin:miter;stroke-opacity:1"
           id="g10068"
           transform="matrix(1.6130008,0,0,1.6130008,1357.6166,634.69029)">
          <path
             d="m -1616.6677,751.63843 -12.3992,-51.67969 0,0 5.3789,0 5.4141,0 0,0 12.3992,51.67969 0,0 z"
             style="font-style:normal;font-variant:normal;font-weight:bold;font-stretch:normal;font-family:Helvetica;-inkscape-font-specification:'Helvetica Bold';fill:#ffffff"
             id="path10070"
             inkscape:connector-curvature="0"
             sodipodi:nodetypes="ccccccccc" />
        </g>
        <g
           transform="matrix(1.6130008,0,0,1.6130008,1406.6166,634.69029)"
           id="g10072"
           style="font-style:normal;font-variant:normal;font-weight:normal;font-stretch:normal;font-size:72px;line-height:100%;font-family:'Luckiest Guy';-inkscape-font-specification:'Luckiest Guy';text-align:center;letter-spacing:0px;word-spacing:0px;writing-mode:lr-tb;text-anchor:middle;fill:#ffffff;fill-opacity:1;stroke:none;stroke-width:1px;stroke-linecap:butt;stroke-linejoin:miter;stroke-opacity:1">
          <path
             inkscape:connector-curvature="0"
             id="path10074"
             style="font-style:normal;font-variant:normal;font-weight:bold;font-stretch:normal;font-family:Helvetica;-inkscape-font-specification:'Helvetica Bold';fill:#ffffff"
             d="m -1641.4661,751.63843 12.3992,-51.67969 0,0 5.3789,0 5.4141,0 0,0 -12.3992,51.67969 0,0 z"
             sodipodi:nodetypes="ccccccccc" />
        </g>
        <g
           transform="matrix(0,1.6130008,-1.6130008,0,-65.6514,4391.4105)"
           id="g10076"
           style="font-style:normal;font-variant:normal;font-weight:normal;font-stretch:normal;font-size:72px;line-height:100%;font-family:'Luckiest Guy';-inkscape-font-specification:'Luckiest Guy';text-align:center;letter-spacing:0px;word-spacing:0px;writing-mode:lr-tb;text-anchor:middle;fill:#ffffff;fill-opacity:1;stroke:none;stroke-width:1px;stroke-linecap:butt;stroke-linejoin:miter;stroke-opacity:1">
          <path
             d="m -1629.0669,751.63843 0,-51.67969 0,0 5.3789,0 5.4141,0 0,0 0,51.67969 0,0 -5.3789,0 -5.4141,0 0,0 z m 0,22.31865 0,-51.67969 0,0 5.3789,0 5.4141,0 0,0 0,51.67969 0,0 -5.3789,0 -5.4141,0 0,0 z"
             style="font-style:normal;font-variant:normal;font-weight:bold;font-stretch:normal;font-family:Helvetica;-inkscape-font-specification:'Helvetica Bold';fill:#ffffff"
             id="path10078"
             inkscape:connector-curvature="0" />
        </g>
        <g
           style="font-style:normal;font-variant:normal;font-weight:normal;font-stretch:normal;font-size:72px;line-height:100%;font-family:'Luckiest Guy';-inkscape-font-specification:'Luckiest Guy';text-align:center;letter-spacing:0px;word-spacing:0px;writing-mode:lr-tb;text-anchor:middle;fill:#ffffff;fill-opacity:1;stroke:none;stroke-width:1px;stroke-linecap:butt;stroke-linejoin:miter;stroke-opacity:1"
           id="g10080"
           transform="matrix(0,1.6130008,-1.6130008,0,-65.6514,4457.3608)">
          <path
             inkscape:connector-curvature="0"
             id="path10082"
             style="font-style:normal;font-variant:normal;font-weight:bold;font-stretch:normal;font-family:Helvetica;-inkscape-font-specification:'Helvetica Bold';fill:#ffffff"
             d="m -1629.0669,751.63843 0,-51.67969 0,0 5.3789,0 5.4141,0 0,0 0,51.67969 0,0 -5.3789,0 -5.4141,0 0,0 z m 0,22.31865 0,-51.67969 0,0 5.3789,0 5.4141,0 0,0 0,51.67969 0,0 -5.3789,0 -5.4141,0 0,0 z" />
        </g>
      </g>
    </g>
  </g>
</svg>
