<?xml version="1.0" encoding="UTF-8" standalone="no"?>
<!-- Created with Inkscape (http://www.inkscape.org/) -->

<svg
   xmlns:dc="http://purl.org/dc/elements/1.1/"
   xmlns:cc="http://creativecommons.org/ns#"
   xmlns:rdf="http://www.w3.org/1999/02/22-rdf-syntax-ns#"
   xmlns:svg="http://www.w3.org/2000/svg"
   xmlns="http://www.w3.org/2000/svg"
   xmlns:sodipodi="http://sodipodi.sourceforge.net/DTD/sodipodi-0.dtd"
   xmlns:inkscape="http://www.inkscape.org/namespaces/inkscape"
   width="144.49779mm"
   height="144.49779mm"
   viewBox="0 0 512.00003 512.00003"
   id="svg10166"
   version="1.1"
   inkscape:version="0.91 r13725"
   sodipodi:docname="sands-of-time-iv.svg">
  <defs
     id="defs10168" />
  <sodipodi:namedview
     id="base"
     pagecolor="#ffffff"
     bordercolor="#666666"
     borderopacity="1.0"
     inkscape:pageopacity="0.0"
     inkscape:pageshadow="2"
     inkscape:zoom="0.35"
     inkscape:cx="-1044"
     inkscape:cy="270.28572"
     inkscape:document-units="px"
     inkscape:current-layer="layer1"
     showgrid="false"
     inkscape:window-width="1920"
     inkscape:window-height="1058"
     inkscape:window-x="1432"
     inkscape:window-y="-8"
     inkscape:window-maximized="1"
     fit-margin-top="0"
     fit-margin-left="0"
     fit-margin-right="0"
     fit-margin-bottom="0" />
  <metadata
     id="metadata10171">
    <rdf:RDF>
      <cc:Work
         rdf:about="">
        <dc:format>image/svg+xml</dc:format>
        <dc:type
           rdf:resource="http://purl.org/dc/dcmitype/StillImage" />
        <dc:title></dc:title>
      </cc:Work>
    </rdf:RDF>
  </metadata>
  <g
     inkscape:label="Layer 1"
     inkscape:groupmode="layer"
     id="layer1"
     transform="translate(-100.42857,-290.64792)">
    <g
       transform="translate(220.71428,408.57143)"
       id="g9856">
      <circle
         style="fill:#000000;stroke:#ffffff;stroke-width:0"
         cx="135.71429"
         cy="138.07649"
         r="256"
         id="circle9569" />
      <path
         style="fill:#ffffff"
         inkscape:connector-curvature="0"
         d="m 16.17755,-60.95351 0,7.948425 c 0,86.735098 32.46238,161.340385 81.96248,188.942505 l 0,5.18442 c -49.50096,27.60212 -81.96334,102.2074 -81.96334,188.9434 l 0,7.94925 243.94689,0 0,-7.94925 c 0,-87.24471 -33.01196,-161.87297 -82.97228,-189.0234 l 0,-5.02442 c 49.95688,-27.15294 82.97228,-101.782069 82.97228,-189.023351 l 0,-7.947579 -243.94858,0 z m 16.1104,15.896004 211.72691,0 C 241.9076,36.991735 207.65273,104.26624 165.79994,124.15903 l -4.54549,2.15406 0,24.45952 4.54631,2.15235 c 41.85025,19.89273 76.10347,87.14769 78.2141,169.19096 l -211.72691,0 C 34.37736,240.53205 68.1252,173.17074 109.59856,152.8722 l 4.46642,-2.17959 0,-24.32596 -4.46642,-2.17959 C 68.12692,103.88852 34.3765,36.527236 32.28795,-45.056653 Z M 214.05279,28.212141 C 165.04445,51.87111 108.11403,51.896633 62.9944,31.695901 c 12.46671,43.306724 37.27587,74.130579 66.46463,79.224799 -1.31012,1.74145 -2.10131,3.90061 -2.10131,6.2478 0,5.75097 4.66881,10.42153 10.42153,10.42153 5.75267,0 10.42146,-4.67056 10.42146,-10.42153 0,-2.314 -0.77162,-4.43911 -2.04683,-6.1678 30.13815,-5.00234 55.71299,-37.491967 67.89891,-82.787713 z M 137.77925,140.37831 c -5.75272,0 -10.42153,4.6688 -10.42153,10.42147 0,5.75269 4.66881,10.42153 10.42153,10.42153 5.75267,0 10.42146,-4.66884 10.42146,-10.42153 0,-5.75267 -4.66879,-10.42147 -10.42146,-10.42147 z m 0,33.41688 c -5.75272,0 -10.42153,4.67058 -10.42153,10.42153 0,5.75353 4.66881,10.42153 10.42153,10.42153 5.75267,0 10.42146,-4.668 10.42146,-10.42153 0,-5.75095 -4.66879,-10.42153 -10.42146,-10.42153 z m 0,33.63214 c -5.75272,0 -10.42153,4.66886 -10.42153,10.42153 0,5.75098 4.66881,10.42153 10.42153,10.42153 5.75267,0 10.42146,-4.67055 10.42146,-10.42153 0,-5.75267 -4.66879,-10.42153 -10.42146,-10.42153 z m 0.10631,33.94949 c -19.74556,0.23821 -39.29549,21.9235 -64.49687,64.36332 l 130.16264,0 c -25.96705,-43.39013 -45.92021,-64.60153 -65.66577,-64.36332 z"
         id="path9571" />
      <g
         id="g9814"
         transform="translate(1222.244,-1667.3275)">
        <g
           transform="matrix(1.6130008,0,0,1.6130008,1328.6166,634.69029)"
           id="g9816"
           style="font-style:normal;font-variant:normal;font-weight:normal;font-stretch:normal;font-size:72px;line-height:100%;font-family:'Luckiest Guy';-inkscape-font-specification:'Luckiest Guy';text-align:center;letter-spacing:0px;word-spacing:0px;writing-mode:lr-tb;text-anchor:middle;fill:#ffffff;fill-opacity:1;stroke:none;stroke-width:1px;stroke-linecap:butt;stroke-linejoin:miter;stroke-opacity:1">
          <path
             inkscape:connector-curvature="0"
             id="path9818"
             style="font-style:normal;font-variant:normal;font-weight:bold;font-stretch:normal;font-family:Helvetica;-inkscape-font-specification:'Helvetica Bold';fill:#ffffff"
             d="m -1629.0669,751.63843 0,-51.67969 0,0 5.3789,0 5.4141,0 0,0 0,51.67969 0,0 -5.3789,0 -5.4141,0 0,0 z" />
        </g>
        <g
           style="font-style:normal;font-variant:normal;font-weight:normal;font-stretch:normal;font-size:72px;line-height:100%;font-family:'Luckiest Guy';-inkscape-font-specification:'Luckiest Guy';text-align:center;letter-spacing:0px;word-spacing:0px;writing-mode:lr-tb;text-anchor:middle;fill:#ffffff;fill-opacity:1;stroke:none;stroke-width:1px;stroke-linecap:butt;stroke-linejoin:miter;stroke-opacity:1"
           id="g9820"
           transform="matrix(1.6130008,0,0,1.6130008,1357.6166,634.69029)">
          <path
             d="m -1616.6677,751.63843 -12.3992,-51.67969 0,0 5.3789,0 5.4141,0 0,0 12.3992,51.67969 0,0 z"
             style="font-style:normal;font-variant:normal;font-weight:bold;font-stretch:normal;font-family:Helvetica;-inkscape-font-specification:'Helvetica Bold';fill:#ffffff"
             id="path9822"
             inkscape:connector-curvature="0"
             sodipodi:nodetypes="ccccccccc" />
        </g>
        <g
           transform="matrix(1.6130008,0,0,1.6130008,1406.6166,634.69029)"
           id="g9824"
           style="font-style:normal;font-variant:normal;font-weight:normal;font-stretch:normal;font-size:72px;line-height:100%;font-family:'Luckiest Guy';-inkscape-font-specification:'Luckiest Guy';text-align:center;letter-spacing:0px;word-spacing:0px;writing-mode:lr-tb;text-anchor:middle;fill:#ffffff;fill-opacity:1;stroke:none;stroke-width:1px;stroke-linecap:butt;stroke-linejoin:miter;stroke-opacity:1">
          <path
             inkscape:connector-curvature="0"
             id="path9826"
             style="font-style:normal;font-variant:normal;font-weight:bold;font-stretch:normal;font-family:Helvetica;-inkscape-font-specification:'Helvetica Bold';fill:#ffffff"
             d="m -1641.4661,751.63843 12.3992,-51.67969 0,0 5.3789,0 5.4141,0 0,0 -12.3992,51.67969 0,0 z"
             sodipodi:nodetypes="ccccccccc" />
        </g>
        <g
           transform="matrix(0,1.6130008,-1.6130008,0,-65.6514,4391.4105)"
           id="g9828"
           style="font-style:normal;font-variant:normal;font-weight:normal;font-stretch:normal;font-size:72px;line-height:100%;font-family:'Luckiest Guy';-inkscape-font-specification:'Luckiest Guy';text-align:center;letter-spacing:0px;word-spacing:0px;writing-mode:lr-tb;text-anchor:middle;fill:#ffffff;fill-opacity:1;stroke:none;stroke-width:1px;stroke-linecap:butt;stroke-linejoin:miter;stroke-opacity:1">
          <path
             d="m -1629.0669,751.63843 0,-51.67969 0,0 5.3789,0 5.4141,0 0,0 0,51.67969 0,0 -5.3789,0 -5.4141,0 0,0 z m 0,22.31865 0,-51.67969 0,0 5.3789,0 5.4141,0 0,0 0,51.67969 0,0 -5.3789,0 -5.4141,0 0,0 z"
             style="font-style:normal;font-variant:normal;font-weight:bold;font-stretch:normal;font-family:Helvetica;-inkscape-font-specification:'Helvetica Bold';fill:#ffffff"
             id="path9830"
             inkscape:connector-curvature="0" />
        </g>
        <g
           style="font-style:normal;font-variant:normal;font-weight:normal;font-stretch:normal;font-size:72px;line-height:100%;font-family:'Luckiest Guy';-inkscape-font-specification:'Luckiest Guy';text-align:center;letter-spacing:0px;word-spacing:0px;writing-mode:lr-tb;text-anchor:middle;fill:#ffffff;fill-opacity:1;stroke:none;stroke-width:1px;stroke-linecap:butt;stroke-linejoin:miter;stroke-opacity:1"
           id="g9832"
           transform="matrix(0,1.6130008,-1.6130008,0,-65.6514,4457.3608)">
          <path
             inkscape:connector-curvature="0"
             id="path9834"
             style="font-style:normal;font-variant:normal;font-weight:bold;font-stretch:normal;font-family:Helvetica;-inkscape-font-specification:'Helvetica Bold';fill:#ffffff"
             d="m -1629.0669,751.63843 0,-51.67969 0,0 5.3789,0 5.4141,0 0,0 0,51.67969 0,0 -5.3789,0 -5.4141,0 0,0 z m 0,22.31865 0,-51.67969 0,0 5.3789,0 5.4141,0 0,0 0,51.67969 0,0 -5.3789,0 -5.4141,0 0,0 z" />
        </g>
      </g>
    </g>
  </g>
</svg>
