<?xml version="1.0" encoding="UTF-8" standalone="no"?>
<!-- Created with Inkscape (http://www.inkscape.org/) -->

<svg
   xmlns:dc="http://purl.org/dc/elements/1.1/"
   xmlns:cc="http://creativecommons.org/ns#"
   xmlns:rdf="http://www.w3.org/1999/02/22-rdf-syntax-ns#"
   xmlns:svg="http://www.w3.org/2000/svg"
   xmlns="http://www.w3.org/2000/svg"
   xmlns:sodipodi="http://sodipodi.sourceforge.net/DTD/sodipodi-0.dtd"
   xmlns:inkscape="http://www.inkscape.org/namespaces/inkscape"
   width="144.49779mm"
   height="144.49779mm"
   viewBox="0 0 512.00003 512.00003"
   id="svg10166"
   version="1.1"
   inkscape:version="0.91 r13725"
   sodipodi:docname="sands-of-time-v.svg">
  <defs
     id="defs10168" />
  <sodipodi:namedview
     id="base"
     pagecolor="#ffffff"
     bordercolor="#666666"
     borderopacity="1.0"
     inkscape:pageopacity="0.0"
     inkscape:pageshadow="2"
     inkscape:zoom="0.35"
     inkscape:cx="-628.28571"
     inkscape:cy="253.14286"
     inkscape:document-units="px"
     inkscape:current-layer="layer1"
     showgrid="false"
     inkscape:window-width="1920"
     inkscape:window-height="1058"
     inkscape:window-x="1432"
     inkscape:window-y="-8"
     inkscape:window-maximized="1"
     fit-margin-top="0"
     fit-margin-left="0"
     fit-margin-right="0"
     fit-margin-bottom="0" />
  <metadata
     id="metadata10171">
    <rdf:RDF>
      <cc:Work
         rdf:about="">
        <dc:format>image/svg+xml</dc:format>
        <dc:type
           rdf:resource="http://purl.org/dc/dcmitype/StillImage" />
        <dc:title></dc:title>
      </cc:Work>
    </rdf:RDF>
  </metadata>
  <g
     inkscape:label="Layer 1"
     inkscape:groupmode="layer"
     id="layer1"
     transform="translate(-130.42857,-273.50506)">
    <g
       transform="translate(-339.28572,391.42857)"
       id="g9889">
      <circle
         style="fill:#000000;stroke:#ffffff;stroke-width:0"
         cx="725.71429"
         cy="138.07649"
         r="256"
         id="circle9772" />
      <path
         style="fill:#ffffff"
         inkscape:connector-curvature="0"
         d="m 606.17755,-60.95351 0,7.948425 c 0,86.735098 32.46238,161.340385 81.96248,188.942505 l 0,5.18442 c -49.50096,27.60212 -81.96334,102.2074 -81.96334,188.9434 l 0,7.94925 243.94689,0 0,-7.94925 c 0,-87.24471 -33.01196,-161.87297 -82.97228,-189.0234 l 0,-5.02442 c 49.95688,-27.15294 82.97228,-101.782069 82.97228,-189.023351 l 0,-7.947579 -243.94858,0 z m 16.1104,15.896004 211.72691,0 C 831.9076,36.991735 797.65273,104.26624 755.79994,124.15903 l -4.54549,2.15406 0,24.45952 4.54631,2.15235 c 41.85025,19.89273 76.10347,87.14769 78.2141,169.19096 l -211.72691,0 c 2.08941,-81.58387 35.83725,-148.94518 77.31061,-169.24372 l 4.46642,-2.17959 0,-24.32596 -4.46642,-2.17959 C 658.12692,103.88852 624.3765,36.527236 622.28795,-45.056653 Z m 181.76484,73.269647 c -49.00834,23.658969 -105.93876,23.684492 -151.05839,3.48376 12.46671,43.306724 37.27587,74.130579 66.46463,79.224799 -1.31012,1.74145 -2.10131,3.90061 -2.10131,6.2478 0,5.75097 4.66881,10.42153 10.42153,10.42153 5.75267,0 10.42146,-4.67056 10.42146,-10.42153 0,-2.314 -0.77162,-4.43911 -2.04683,-6.1678 30.13815,-5.00234 55.71299,-37.491967 67.89891,-82.787713 z M 727.77925,140.37831 c -5.75272,0 -10.42153,4.6688 -10.42153,10.42147 0,5.75269 4.66881,10.42153 10.42153,10.42153 5.75267,0 10.42146,-4.66884 10.42146,-10.42153 0,-5.75267 -4.66879,-10.42147 -10.42146,-10.42147 z m 0,33.41688 c -5.75272,0 -10.42153,4.67058 -10.42153,10.42153 0,5.75353 4.66881,10.42153 10.42153,10.42153 5.75267,0 10.42146,-4.668 10.42146,-10.42153 0,-5.75095 -4.66879,-10.42153 -10.42146,-10.42153 z m 0,33.63214 c -5.75272,0 -10.42153,4.66886 -10.42153,10.42153 0,5.75098 4.66881,10.42153 10.42153,10.42153 5.75267,0 10.42146,-4.67055 10.42146,-10.42153 0,-5.75267 -4.66879,-10.42153 -10.42146,-10.42153 z m 0.10631,33.94949 c -19.74556,0.23821 -39.29549,21.9235 -64.49687,64.36332 l 130.16264,0 c -25.96705,-43.39013 -45.92021,-64.60153 -65.66577,-64.36332 z"
         id="path9774" />
      <g
         id="g9871"
         transform="translate(-404.756,-3767.3275)">
        <g
           transform="matrix(1.6130008,0,0,1.6130008,3557.6166,2734.6903)"
           id="g9873"
           style="font-style:normal;font-variant:normal;font-weight:normal;font-stretch:normal;font-size:72px;line-height:100%;font-family:'Luckiest Guy';-inkscape-font-specification:'Luckiest Guy';text-align:center;letter-spacing:0px;word-spacing:0px;writing-mode:lr-tb;text-anchor:middle;fill:#ffffff;fill-opacity:1;stroke:none;stroke-width:1px;stroke-linecap:butt;stroke-linejoin:miter;stroke-opacity:1">
          <path
             sodipodi:nodetypes="ccccccccc"
             inkscape:connector-curvature="0"
             id="path9875"
             style="font-style:normal;font-variant:normal;font-weight:bold;font-stretch:normal;font-family:Helvetica;-inkscape-font-specification:'Helvetica Bold';fill:#ffffff"
             d="m -1616.6677,751.63843 -12.3992,-51.67969 0,0 5.3789,0 5.4141,0 0,0 12.3992,51.67969 0,0 z" />
        </g>
        <g
           style="font-style:normal;font-variant:normal;font-weight:normal;font-stretch:normal;font-size:72px;line-height:100%;font-family:'Luckiest Guy';-inkscape-font-specification:'Luckiest Guy';text-align:center;letter-spacing:0px;word-spacing:0px;writing-mode:lr-tb;text-anchor:middle;fill:#ffffff;fill-opacity:1;stroke:none;stroke-width:1px;stroke-linecap:butt;stroke-linejoin:miter;stroke-opacity:1"
           id="g9877"
           transform="matrix(1.6130008,0,0,1.6130008,3606.6166,2734.6903)">
          <path
             sodipodi:nodetypes="ccccccccc"
             d="m -1641.4661,751.63843 12.3992,-51.67969 0,0 5.3789,0 5.4141,0 0,0 -12.3992,51.67969 0,0 z"
             style="font-style:normal;font-variant:normal;font-weight:bold;font-stretch:normal;font-family:Helvetica;-inkscape-font-specification:'Helvetica Bold';fill:#ffffff"
             id="path9879"
             inkscape:connector-curvature="0" />
        </g>
        <g
           transform="matrix(0,1.6130008,-1.6130008,0,2164.3486,6491.4105)"
           id="g9881"
           style="font-style:normal;font-variant:normal;font-weight:normal;font-stretch:normal;font-size:72px;line-height:100%;font-family:'Luckiest Guy';-inkscape-font-specification:'Luckiest Guy';text-align:center;letter-spacing:0px;word-spacing:0px;writing-mode:lr-tb;text-anchor:middle;fill:#ffffff;fill-opacity:1;stroke:none;stroke-width:1px;stroke-linecap:butt;stroke-linejoin:miter;stroke-opacity:1">
          <path
             d="m -1629.0669,773.95708 0,-57.87931 0,0 10.793,0 0,0 0,57.87931 0,0 z"
             style="font-style:normal;font-variant:normal;font-weight:bold;font-stretch:normal;font-family:Helvetica;-inkscape-font-specification:'Helvetica Bold';fill:#ffffff"
             id="path9883"
             inkscape:connector-curvature="0"
             sodipodi:nodetypes="cccccccc" />
        </g>
        <g
           style="font-style:normal;font-variant:normal;font-weight:normal;font-stretch:normal;font-size:72px;line-height:100%;font-family:'Luckiest Guy';-inkscape-font-specification:'Luckiest Guy';text-align:center;letter-spacing:0px;word-spacing:0px;writing-mode:lr-tb;text-anchor:middle;fill:#ffffff;fill-opacity:1;stroke:none;stroke-width:1px;stroke-linecap:butt;stroke-linejoin:miter;stroke-opacity:1"
           id="g9885"
           transform="matrix(0,1.6130008,-1.6130008,0,2164.3486,6557.3608)">
          <path
             sodipodi:nodetypes="cccccccc"
             inkscape:connector-curvature="0"
             id="path9887"
             style="font-style:normal;font-variant:normal;font-weight:bold;font-stretch:normal;font-family:Helvetica;-inkscape-font-specification:'Helvetica Bold';fill:#ffffff"
             d="m -1629.0669,773.95708 0,-57.87931 0,0 10.793,0 0,0 0,57.87931 0,0 z" />
        </g>
      </g>
    </g>
  </g>
</svg>
