<?xml version="1.0" encoding="UTF-8" standalone="no"?>
<!-- Created with Inkscape (http://www.inkscape.org/) -->

<svg
   xmlns:dc="http://purl.org/dc/elements/1.1/"
   xmlns:cc="http://creativecommons.org/ns#"
   xmlns:rdf="http://www.w3.org/1999/02/22-rdf-syntax-ns#"
   xmlns:svg="http://www.w3.org/2000/svg"
   xmlns="http://www.w3.org/2000/svg"
   xmlns:sodipodi="http://sodipodi.sourceforge.net/DTD/sodipodi-0.dtd"
   xmlns:inkscape="http://www.inkscape.org/namespaces/inkscape"
   width="144.49779mm"
   height="144.49779mm"
   viewBox="0 0 512.00003 512.00003"
   id="svg10166"
   version="1.1"
   inkscape:version="0.91 r13725"
   sodipodi:docname="sands-of-time-i.svg">
  <defs
     id="defs10168" />
  <sodipodi:namedview
     id="base"
     pagecolor="#ffffff"
     bordercolor="#666666"
     borderopacity="1.0"
     inkscape:pageopacity="0.0"
     inkscape:pageshadow="2"
     inkscape:zoom="0.35"
     inkscape:cx="-624.71428"
     inkscape:cy="273.14286"
     inkscape:document-units="px"
     inkscape:current-layer="layer1"
     showgrid="false"
     inkscape:window-width="1920"
     inkscape:window-height="1058"
     inkscape:window-x="1432"
     inkscape:window-y="-8"
     inkscape:window-maximized="1"
     fit-margin-top="0"
     fit-margin-left="0"
     fit-margin-right="0"
     fit-margin-bottom="0" />
  <metadata
     id="metadata10171">
    <rdf:RDF>
      <cc:Work
         rdf:about="">
        <dc:format>image/svg+xml</dc:format>
        <dc:type
           rdf:resource="http://purl.org/dc/dcmitype/StillImage" />
        <dc:title></dc:title>
      </cc:Work>
    </rdf:RDF>
  </metadata>
  <g
     inkscape:label="Layer 1"
     inkscape:groupmode="layer"
     id="layer1"
     transform="translate(-126.85714,-293.50505)">
    <g
       transform="translate(857.14285,991.42858)"
       id="g9836">
      <circle
         style="fill:#000000;stroke:#ffffff;stroke-width:0"
         cx="-474.28571"
         cy="-441.92352"
         r="256"
         id="circle9599" />
      <path
         style="fill:#ffffff"
         inkscape:connector-curvature="0"
         d="m -593.82245,-640.95351 0,7.94843 c 0,86.73509 32.46238,161.34038 81.96248,188.9425 l 0,5.18442 c -49.50096,27.60212 -81.96334,102.2074 -81.96334,188.9434 l 0,7.94925 243.94689,0 0,-7.94925 c 0,-87.24471 -33.01196,-161.87297 -82.97228,-189.0234 l 0,-5.02442 c 49.95688,-27.15294 82.97228,-101.78207 82.97228,-189.02335 l 0,-7.94758 -243.94858,0 z m 16.1104,15.896 211.72691,0 c -2.10726,82.04924 -36.36213,149.32375 -78.21492,169.21654 l -4.54549,2.15406 0,24.45952 4.54631,2.15235 c 41.85025,19.89273 76.10347,87.14769 78.2141,169.19096 l -211.72691,0 c 2.08941,-81.58387 35.83725,-148.94518 77.31061,-169.24372 l 4.46642,-2.17959 0,-24.32596 -4.46642,-2.17959 c -41.47164,-20.29854 -75.22206,-87.65982 -77.31061,-169.24371 z m 181.76484,73.26965 c -49.00834,23.65897 -105.93876,23.68449 -151.05839,3.48376 12.46671,43.30673 37.27587,74.13058 66.46463,79.2248 -1.31012,1.74145 -2.10131,3.90061 -2.10131,6.2478 0,5.75097 4.66881,10.42153 10.42153,10.42153 5.75267,0 10.42146,-4.67056 10.42146,-10.42153 0,-2.314 -0.77162,-4.43911 -2.04683,-6.1678 30.13815,-5.00234 55.71299,-37.49197 67.89891,-82.78771 z m -76.27354,112.16617 c -5.75272,0 -10.42153,4.6688 -10.42153,10.42147 0,5.75269 4.66881,10.42153 10.42153,10.42153 5.75267,0 10.42146,-4.66884 10.42146,-10.42153 0,-5.75267 -4.66879,-10.42147 -10.42146,-10.42147 z m 0,33.41688 c -5.75272,0 -10.42153,4.67058 -10.42153,10.42153 0,5.75353 4.66881,10.42153 10.42153,10.42153 5.75267,0 10.42146,-4.668 10.42146,-10.42153 0,-5.75095 -4.66879,-10.42153 -10.42146,-10.42153 z m 0,33.63214 c -5.75272,0 -10.42153,4.66886 -10.42153,10.42153 0,5.75098 4.66881,10.42153 10.42153,10.42153 5.75267,0 10.42146,-4.67055 10.42146,-10.42153 0,-5.75267 -4.66879,-10.42153 -10.42146,-10.42153 z m 0.10631,33.94949 c -19.74556,0.23821 -39.29549,21.9235 -64.49687,64.36332 l 130.16264,0 c -25.96705,-43.39013 -45.92021,-64.60153 -65.66577,-64.36332 z"
         id="path9601" />
      <g
         inkscape:export-ydpi="90"
         inkscape:export-xdpi="90"
         transform="translate(1902.244,-1597.3275)"
         id="g9760">
        <g
           transform="matrix(1.6130008,0,0,1.6130008,74.6166,-15.309715)"
           id="g9762"
           style="font-style:normal;font-variant:normal;font-weight:normal;font-stretch:normal;font-size:72px;line-height:100%;font-family:'Luckiest Guy';-inkscape-font-specification:'Luckiest Guy';text-align:center;letter-spacing:0px;word-spacing:0px;writing-mode:lr-tb;text-anchor:middle;fill:#ffffff;fill-opacity:1;stroke:none;stroke-width:1px;stroke-linecap:butt;stroke-linejoin:miter;stroke-opacity:1">
          <path
             inkscape:connector-curvature="0"
             id="path9764"
             style="font-style:normal;font-variant:normal;font-weight:bold;font-stretch:normal;font-family:Helvetica;-inkscape-font-specification:'Helvetica Bold';fill:#ffffff"
             d="m -1629.0669,751.63843 0,-51.67969 0,0 5.3789,0 5.4141,0 0,0 0,51.67969 0,0 -5.3789,0 -5.4141,0 0,0 z" />
        </g>
        <path
           d="m -2566.0448,1113.7243 43.3594,0 0,0 c 0,5.803 0,11.6061 0,17.4091 l 0,0 -43.3594,0 0,0 c 0,-5.803 0,-11.6061 0,-17.4091 z"
           style="font-style:normal;font-variant:normal;font-weight:bold;font-stretch:normal;font-size:medium;line-height:100%;font-family:Helvetica;-inkscape-font-specification:'Helvetica Bold';text-align:center;letter-spacing:0px;word-spacing:0px;writing-mode:lr-tb;text-anchor:middle;fill:#ffffff;fill-opacity:1;stroke:none;stroke-width:1px;stroke-linecap:butt;stroke-linejoin:miter;stroke-opacity:1"
           id="path9766"
           inkscape:connector-curvature="0"
           sodipodi:nodetypes="cccccccc" />
        <path
           sodipodi:nodetypes="cccccccc"
           inkscape:connector-curvature="0"
           id="path9768"
           style="font-style:normal;font-variant:normal;font-weight:bold;font-stretch:normal;font-size:medium;line-height:100%;font-family:Helvetica;-inkscape-font-specification:'Helvetica Bold';text-align:center;letter-spacing:0px;word-spacing:0px;writing-mode:lr-tb;text-anchor:middle;fill:#ffffff;fill-opacity:1;stroke:none;stroke-width:1px;stroke-linecap:butt;stroke-linejoin:miter;stroke-opacity:1"
           d="m -2566.0448,1179.6746 43.3594,0 0,0 c 0,5.803 0,11.6061 0,17.4091 l 0,0 -43.3594,0 0,0 c 0,-5.803 0,-11.6061 0,-17.4091 z" />
      </g>
    </g>
  </g>
</svg>
