<?xml version="1.0" encoding="UTF-8" standalone="no"?>
<!-- Created with Inkscape (http://www.inkscape.org/) -->

<svg
   xmlns:dc="http://purl.org/dc/elements/1.1/"
   xmlns:cc="http://creativecommons.org/ns#"
   xmlns:rdf="http://www.w3.org/1999/02/22-rdf-syntax-ns#"
   xmlns:svg="http://www.w3.org/2000/svg"
   xmlns="http://www.w3.org/2000/svg"
   xmlns:sodipodi="http://sodipodi.sourceforge.net/DTD/sodipodi-0.dtd"
   xmlns:inkscape="http://www.inkscape.org/namespaces/inkscape"
   width="144.49779mm"
   height="144.49779mm"
   viewBox="0 0 512.00003 512.00003"
   id="svg10166"
   version="1.1"
   inkscape:version="0.91 r13725"
   sodipodi:docname="sands-of-time-iii.svg">
  <defs
     id="defs10168" />
  <sodipodi:namedview
     id="base"
     pagecolor="#ffffff"
     bordercolor="#666666"
     borderopacity="1.0"
     inkscape:pageopacity="0.0"
     inkscape:pageshadow="2"
     inkscape:zoom="0.35"
     inkscape:cx="-584.71428"
     inkscape:cy="218.85715"
     inkscape:document-units="px"
     inkscape:current-layer="layer1"
     showgrid="false"
     inkscape:window-width="1920"
     inkscape:window-height="1058"
     inkscape:window-x="1432"
     inkscape:window-y="-8"
     inkscape:window-maximized="1"
     fit-margin-top="0"
     fit-margin-left="0"
     fit-margin-right="0"
     fit-margin-bottom="0" />
  <metadata
     id="metadata10171">
    <rdf:RDF>
      <cc:Work
         rdf:about="">
        <dc:format>image/svg+xml</dc:format>
        <dc:type
           rdf:resource="http://purl.org/dc/dcmitype/StillImage" />
        <dc:title></dc:title>
      </cc:Work>
    </rdf:RDF>
  </metadata>
  <g
     inkscape:label="Layer 1"
     inkscape:groupmode="layer"
     id="layer1"
     transform="translate(-86.857139,-239.21935)">
    <g
       transform="translate(817.14285,357.14286)"
       id="g9551">
      <circle
         id="circle4163"
         r="256"
         cy="138.07649"
         cx="-474.28571"
         style="fill:#000000;stroke:#ffffff;stroke-width:0" />
      <path
         id="path4165"
         d="m -593.82245,-60.95351 0,7.948425 c 0,86.735098 32.46238,161.340385 81.96248,188.942505 l 0,5.18442 c -49.50096,27.60212 -81.96334,102.2074 -81.96334,188.9434 l 0,7.94925 243.94689,0 0,-7.94925 c 0,-87.24471 -33.01196,-161.87297 -82.97228,-189.0234 l 0,-5.02442 c 49.95688,-27.15294 82.97228,-101.782069 82.97228,-189.023351 l 0,-7.947579 -243.94858,0 z m 16.1104,15.896004 211.72691,0 c -2.10726,82.049241 -36.36213,149.323746 -78.21492,169.216536 l -4.54549,2.15406 0,24.45952 4.54631,2.15235 c 41.85025,19.89273 76.10347,87.14769 78.2141,169.19096 l -211.72691,0 c 2.08941,-81.58387 35.83725,-148.94518 77.31061,-169.24372 l 4.46642,-2.17959 0,-24.32596 -4.46642,-2.17959 c -41.47164,-20.29854 -75.22206,-87.659824 -77.31061,-169.243713 z m 181.76484,73.269647 c -49.00834,23.658969 -105.93876,23.684492 -151.05839,3.48376 12.46671,43.306724 37.27587,74.130579 66.46463,79.224799 -1.31012,1.74145 -2.10131,3.90061 -2.10131,6.2478 0,5.75097 4.66881,10.42153 10.42153,10.42153 5.75267,0 10.42146,-4.67056 10.42146,-10.42153 0,-2.314 -0.77162,-4.43911 -2.04683,-6.1678 30.13815,-5.00234 55.71299,-37.491967 67.89891,-82.787713 z m -76.27354,112.166169 c -5.75272,0 -10.42153,4.6688 -10.42153,10.42147 0,5.75269 4.66881,10.42153 10.42153,10.42153 5.75267,0 10.42146,-4.66884 10.42146,-10.42153 0,-5.75267 -4.66879,-10.42147 -10.42146,-10.42147 z m 0,33.41688 c -5.75272,0 -10.42153,4.67058 -10.42153,10.42153 0,5.75353 4.66881,10.42153 10.42153,10.42153 5.75267,0 10.42146,-4.668 10.42146,-10.42153 0,-5.75095 -4.66879,-10.42153 -10.42146,-10.42153 z m 0,33.63214 c -5.75272,0 -10.42153,4.66886 -10.42153,10.42153 0,5.75098 4.66881,10.42153 10.42153,10.42153 5.75267,0 10.42146,-4.67055 10.42146,-10.42153 0,-5.75267 -4.66879,-10.42153 -10.42146,-10.42153 z m 0.10631,33.94949 c -19.74556,0.23821 -39.29549,21.9235 -64.49687,64.36332 l 130.16264,0 c -25.96705,-43.39013 -45.92021,-64.60153 -65.66577,-64.36332 z"
         inkscape:connector-curvature="0"
         style="fill:#ffffff" />
      <g
         id="g9527"
         transform="translate(612.24397,-1017.3275)">
        <g
           style="font-style:normal;font-variant:normal;font-weight:normal;font-stretch:normal;font-size:72px;line-height:100%;font-family:'Luckiest Guy';-inkscape-font-specification:'Luckiest Guy';text-align:center;letter-spacing:0px;word-spacing:0px;writing-mode:lr-tb;text-anchor:middle;fill:#ffffff;fill-opacity:1;stroke:none;stroke-width:1px;stroke-linecap:butt;stroke-linejoin:miter;stroke-opacity:1"
           id="g9529"
           transform="matrix(1.6130008,0,0,1.6130008,1328.6166,-15.309715)">
          <path
             d="m -1629.0669,751.63843 0,-51.67969 0,0 5.3789,0 5.4141,0 0,0 0,51.67969 0,0 -5.3789,0 -5.4141,0 0,0 z"
             style="font-style:normal;font-variant:normal;font-weight:bold;font-stretch:normal;font-family:Helvetica;-inkscape-font-specification:'Helvetica Bold';fill:#ffffff"
             id="path9531"
             inkscape:connector-curvature="0" />
        </g>
        <g
           transform="matrix(1.6130008,0,0,1.6130008,1364.6166,-15.309715)"
           id="g9533"
           style="font-style:normal;font-variant:normal;font-weight:normal;font-stretch:normal;font-size:72px;line-height:100%;font-family:'Luckiest Guy';-inkscape-font-specification:'Luckiest Guy';text-align:center;letter-spacing:0px;word-spacing:0px;writing-mode:lr-tb;text-anchor:middle;fill:#ffffff;fill-opacity:1;stroke:none;stroke-width:1px;stroke-linecap:butt;stroke-linejoin:miter;stroke-opacity:1">
          <path
             inkscape:connector-curvature="0"
             id="path9535"
             style="font-style:normal;font-variant:normal;font-weight:bold;font-stretch:normal;font-family:Helvetica;-inkscape-font-specification:'Helvetica Bold';fill:#ffffff"
             d="m -1629.0669,751.63843 0,-51.67969 0,0 5.3789,0 5.4141,0 0,0 0,51.67969 0,0 -5.3789,0 -5.4141,0 0,0 z" />
        </g>
        <g
           style="font-style:normal;font-variant:normal;font-weight:normal;font-stretch:normal;font-size:72px;line-height:100%;font-family:'Luckiest Guy';-inkscape-font-specification:'Luckiest Guy';text-align:center;letter-spacing:0px;word-spacing:0px;writing-mode:lr-tb;text-anchor:middle;fill:#ffffff;fill-opacity:1;stroke:none;stroke-width:1px;stroke-linecap:butt;stroke-linejoin:miter;stroke-opacity:1"
           id="g9537"
           transform="matrix(1.6130008,0,0,1.6130008,1400.6166,-15.309715)">
          <path
             d="m -1629.0669,751.63843 0,-51.67969 0,0 5.3789,0 5.4141,0 0,0 0,51.67969 0,0 -5.3789,0 -5.4141,0 0,0 z"
             style="font-style:normal;font-variant:normal;font-weight:bold;font-stretch:normal;font-family:Helvetica;-inkscape-font-specification:'Helvetica Bold';fill:#ffffff"
             id="path9539"
             inkscape:connector-curvature="0" />
        </g>
        <g
           transform="matrix(0,1.6130008,-1.6130008,0,-101.6514,3741.4105)"
           id="g9541"
           style="font-style:normal;font-variant:normal;font-weight:normal;font-stretch:normal;font-size:72px;line-height:100%;font-family:'Luckiest Guy';-inkscape-font-specification:'Luckiest Guy';text-align:center;letter-spacing:0px;word-spacing:0px;writing-mode:lr-tb;text-anchor:middle;fill:#ffffff;fill-opacity:1;stroke:none;stroke-width:1px;stroke-linecap:butt;stroke-linejoin:miter;stroke-opacity:1" />
        <g
           style="font-style:normal;font-variant:normal;font-weight:normal;font-stretch:normal;font-size:72px;line-height:100%;font-family:'Luckiest Guy';-inkscape-font-specification:'Luckiest Guy';text-align:center;letter-spacing:0px;word-spacing:0px;writing-mode:lr-tb;text-anchor:middle;fill:#ffffff;fill-opacity:1;stroke:none;stroke-width:1px;stroke-linecap:butt;stroke-linejoin:miter;stroke-opacity:1"
           id="g9543"
           transform="matrix(0,1.6130008,-1.6130008,0,-65.6514,3741.4105)">
          <path
             id="path9545"
             style="font-style:normal;font-variant:normal;font-weight:bold;font-stretch:normal;font-family:Helvetica;-inkscape-font-specification:'Helvetica Bold';fill:#ffffff"
             d="m -1629.0669,751.63843 0,-51.67969 0,0 5.3789,0 5.4141,0 0,0 0,51.67969 0,0 -5.3789,0 -5.4141,0 0,0 z m 0,22.31865 0,-51.67969 0,0 5.3789,0 5.4141,0 0,0 0,51.67969 0,0 -5.3789,0 -5.4141,0 0,0 z"
             inkscape:connector-curvature="0" />
        </g>
        <g
           transform="matrix(0,1.6130008,-1.6130008,0,-65.6514,3807.3608)"
           id="g9547"
           style="font-style:normal;font-variant:normal;font-weight:normal;font-stretch:normal;font-size:72px;line-height:100%;font-family:'Luckiest Guy';-inkscape-font-specification:'Luckiest Guy';text-align:center;letter-spacing:0px;word-spacing:0px;writing-mode:lr-tb;text-anchor:middle;fill:#ffffff;fill-opacity:1;stroke:none;stroke-width:1px;stroke-linecap:butt;stroke-linejoin:miter;stroke-opacity:1">
          <path
             d="m -1629.0669,751.63843 0,-51.67969 0,0 5.3789,0 5.4141,0 0,0 0,51.67969 0,0 -5.3789,0 -5.4141,0 0,0 z m 0,22.31865 0,-51.67969 0,0 5.3789,0 5.4141,0 0,0 0,51.67969 0,0 -5.3789,0 -5.4141,0 0,0 z"
             style="font-style:normal;font-variant:normal;font-weight:bold;font-stretch:normal;font-family:Helvetica;-inkscape-font-specification:'Helvetica Bold';fill:#ffffff"
             id="path9549"
             inkscape:connector-curvature="0" />
        </g>
      </g>
    </g>
  </g>
</svg>
